<?xml version="1.0" encoding="UTF-8"?>
<svg id="_Ñëîé_1" data-name="Ñëîé 1" xmlns="http://www.w3.org/2000/svg" viewBox="0 0 508.24 621.12">
  <defs>
    <style>
      .cls-1 {
        fill: #927c51;
      }

      .cls-2 {
        fill: #fff;
      }

      .cls-3 {
        fill: #4a81c2;
      }

      .cls-4 {
        fill: #ffe240;
      }

      .cls-5 {
        fill: #231f20;
      }

      .cls-6 {
        fill: #ef3e3d;
      }
    </style>
  </defs>
  <path class="cls-5" d="M27.99,44.86c-6.94,3.36-14,7.14-21,11.21C3.78,57.95-.04,61.8,0,69.49v460.75c0,5.55,4.14,11.21,9.42,12.9l243.85,77.85c.55,.17,1.14,.17,1.69,0l243.85-77.85c5.28-1.69,9.42-7.36,9.42-12.9V69.48c.04-7.68-3.78-11.53-7-13.4-6.99-4.08-14.06-7.85-21-11.21C420.55,15.93,340.25,0,254.12,0S87.68,15.93,27.99,44.86Z"/>
  <path class="cls-2" d="M11.11,537.86c-2.96-.95-5.56-4.51-5.56-7.62V69.38c0-4.06,1.39-6.84,4.24-8.5,6.87-4.01,13.81-7.71,20.62-11.01C89.36,21.29,168.81,5.55,254.12,5.55s164.75,15.74,223.71,44.31c6.81,3.3,13.75,7.01,20.62,11.01,2.88,1.68,4.26,4.49,4.24,8.59v460.78c0,3.11-2.6,6.67-5.56,7.62h0s-241.33,77.04-243,77.58c-1.68-.53-243.01-77.58-243.01-77.58Z"/>
  <path class="cls-5" d="M341.71,109.68c5.67-3.08,21.51-10.29,37.79-5.34l10.22,3.38c18.34,6.3,39.13,13.43,58.08-1.06,19.11-14.62,23.94-23.96,25.13-27.3,.45-1.26-.06-1.93-.4-2.21-.27-.23-1.03-.68-2.18-.01-3.88,2.25-17.58,9.44-31.07,7.62-8.19-1.11-15.1-4.43-21.78-7.65-7.09-3.41-13.79-6.64-21.36-6.93-17.91-.69-30.15,6.97-55.53,35.32-.64,.71-3.73,4.27-3.73,4.27-5.16-2.16-9.82-3.56-12.66-4.32,9.66-8.08,32.21-24.99,34.88-26.99,.45-.34,.71-.84,.71-1.37,0-.05,0-.1,0-.16-.06-.61-.45-1.16-1.03-1.44-2.25-1.09-4.93-3.76-6.69-5.89l-1.19-.63-1.48,.54s-.74,.64-1.27,1.1c.27-1.13,.42-2.19,.42-3.1,0-2.12-.56-3.61-.86-4.26-.26-.56-.76-.93-1.33-.97-.28-.02-.98,.01-1.51,.8-1.13,1.69-7.3,10.11-18.38,10.11-3.94,0-7.02-1.17-9.16-3.47-3.87-4.16-3.99-11.01-3.72-14.73,.06-.87-.38-1.31-.65-1.5-.27-.19-.83-.45-1.61-.11l-70.49,37.23c-1.97,1.04-3.52,3.61-3.52,5.84v78.69c0,1.3,.54,2.4,1.47,3.02,.93,.62,2.16,.69,3.35,.19l38.25-15.96c2.11-.88,3.76-3.36,3.76-5.64v-14.67c.76,.09,4.35,.51,4.35,.51,10.81,1.7,18.69,6.22,22.77,13.08,2.29,3.85,3.13,7.93,3.13,11.48,0,2.52-.42,4.77-1.04,6.51-2.17,6.11-7.76,11.28-16.18,14.96-14.87,6.49-35.73,6.86-49.6,.89-19.54-8.42-28.65-25.87-28.65-54.92,0-39.66,31.35-57.07,37.64-60.16,.42-.21,1.71-.84,1.49-2.09-.1-.55-.5-1.25-1.86-1.4-5.04-.57-23.24-1.78-45.63,6.74-15.74,5.99-26.65,14.05-34.31,25.37-2.19,3.23-3.88,6.45-5.53,9.72-.79-.98-31.52-38.87-31.52-38.87-.65-.8-1.58-1.27-2.56-1.29-.98-.02-1.93,.41-2.6,1.19,0,0-8.43,9.62-10.28,11.74-3.14-4.11-13.28-15.42-30.12-16.04-22.09-.81-34.36,11.49-37.59,15.28-.81,.95-.6,1.74-.4,2.13,.37,.72,1.12,1.03,2.24,.93,4.16-.37,18.26-.93,25.29,7.4,0,0,9.42,11.61,9.81,12.09-.6,.86-42.52,61.15-42.52,61.15-10.33,14.8-20.81,25.16-23.77,27.98-.34,.32-.95,.9-.95,1.62,0,.24,.07,.49,.23,.75,.11,.17,.71,.99,1.94,.5,2.42-.96,15-5.57,24.99-2.25,7.79,2.6,14.39,10.74,16.24,13.17,.24,.32,.97,1.29,2.06,.84,1.08-.45,.92-1.64,.87-2.03-.23-1.67-.27-6.05,4.24-10.72,5.76-5.97,25.68-22.56,29.62-25.83,1.06-.89,1.17-2.5,.56-3.34-1.17-1.62-3.11-2.86-4.53-3.61-.97-.51-2.16-.11-2.5,.02-.15,.06-.28,.14-.4,.24,0,0-6.12,5.32-7.06,6.13-4.94-7.14-10.95-9.51-14.18-10.27,1.43-2.06,3.88-5.58,4.12-5.93h50.31c.65,.8,23.76,29.31,23.76,29.31,.37,.44,.7,1,.7,2.19v15.48c0,1.72,.94,2.29,1.35,2.46,.41,.17,1.48,.42,2.68-.81l15.13-15.39s.04-.03,.09-.07c2.87,2.68,5.97,5.27,9.26,7.73,3.59,2.69,7.27,5.11,11.02,7.28l.08,.05c-4.41,1.14-8.97,2.37-13.67,3.71-40.16,11.44-59.82,18.92-60.01,19-.46,.17-.76,.61-.76,1.1v187.31c0,10.93,2.62,21.96,7.51,32.84-5.51-4.61-13.5-11.58-24.22-21.68-20.29-19.09-44.7-45.2-51.7-52.74-.35-.38-1.28-1.38-2.33-.81-.58,.31-.74,.88-.74,1.43,0,.47,.12,.94,.19,1.22,1.79,6.93,8.6,31.43,21.63,57.45-7.08-2.25-27.65-9.45-51.29-23.45-.66-.39-1.67-.53-2.43,.06-.3,.24-.73,.72-.73,1.58,0,.28,.04,.59,.15,.95,1.53,5.28,6.67,16.57,23.87,32.91,17.53,16.66,31.68,27.79,36.71,31.64-1.3,1.37-4.85,5.1-4.85,5.1-5.01,5.41-7.61,8.85-7.61,14.05,0,.68,.04,1.4,.14,2.15,1.69,14.07,28.61,36.99,84.96,56.47,30.36,10.5,66.92,16.28,102.94,16.28s72.58-5.78,102.94-16.28c56.35-19.49,83.27-42.4,84.96-56.47,.09-.75,.13-1.47,.13-2.15,0-5.2-2.6-8.64-7.61-14.05,0,0-3.55-3.73-4.85-5.09,5.03-3.84,19.18-14.98,36.71-31.64,17.2-16.34,22.34-27.63,23.87-32.91,.1-.36,.15-.67,.15-.95,0-.86-.42-1.35-.73-1.58-.76-.59-1.76-.45-2.43-.06-23.75,14.07-44.4,21.26-51.29,23.46,13.03-26.02,19.85-50.52,21.63-57.46,.07-.29,.19-.75,.19-1.22,0-.55-.16-1.11-.74-1.43-1.04-.57-1.98,.43-2.33,.81-7,7.54-31.41,33.65-51.7,52.74-10.72,10.09-18.71,17.06-24.23,21.68,4.89-10.89,7.51-21.91,7.51-32.85V227.77c0-.49-.3-.93-.76-1.1-.19-.07-19.86-7.55-60.01-19-3.42-.98-6.78-1.9-10.05-2.76l-.16-.04c1.79-.91,3.54-1.86,5.24-2.85,36.9-21.26,44.6-42.75,44.6-56.97,0-6.43-1.57-11.38-2.74-14.14-3.93-9.35-13.78-15.8-22.86-19.96,0,0,1.61-1,2.12-1.28Zm-54.97-18.38c.86,2.17,2.75,5.33,6.82,7.22,6.18,2.88,15.05,1.66,26.3-3.48-10.66,9.22-30.33,26.24-30.33,26.24l-2.22,1.94s-2.64,2.28-3.15,2.72v-32.08c.45-.45,1.53-1.53,2.57-2.57Zm-181.55,31.04c1.09,1.34,12.72,15.68,15.09,18.61h-28.04c2.13-3.07,12.05-17.33,12.94-18.61Z"/>
  <path class="cls-2" d="M350.11,514.22c12.42-4.87,52.79-21.84,62.62-39.88,5.02,5.13,11.13,11.41,13.99,14.49,4.02,4.34,4.78,5.74,4.78,6.8l-.07,.88c-.55,4.57-15.37,26.04-77.85,47.65-29.27,10.12-64.59,15.7-99.45,15.7s-70.18-5.58-99.45-15.7c-62.48-21.61-77.3-43.08-77.84-47.65,0,0-.07-.88-.07-.88,0-1.06,.76-2.46,4.78-6.8,2.85-3.08,8.96-9.36,13.99-14.49,9.83,18.04,50.19,35.01,62.62,39.88,30.38,11.9,59.09,16.98,95.99,16.98s65.6-5.08,95.99-16.98Z"/>
  <path class="cls-5" d="M166.14,519.9l-23.56,17.98c-.21,.16-.31,.42-.26,.68,.05,.26,.24,.46,.49,.54l10.63,3.13c.22,.07,.45,.02,.63-.13,0,0,3.21-2.6,3.7-3,.66,.2,17.96,5.29,18.6,5.48,.21,.58,1.64,4.59,1.64,4.59,.08,.21,.25,.37,.46,.43l10.58,3.12c.25,.07,.52,0,.7-.19,.18-.19,.24-.47,.14-.71l-10.29-27.96c-.08-.21-.24-.36-.45-.42l-12.38-3.65c-.21-.06-.44-.02-.62,.11Zm4.69,8.85c.46,1.33,2.25,6.47,2.86,8.23-1.83-.54-7.8-2.3-9.6-2.83,1.44-1.15,5.64-4.52,6.74-5.4Z"/>
  <path class="cls-5" d="M117.24,497.78l-26.93,12.36c-.24,.11-.39,.34-.4,.61,0,.26,.13,.5,.36,.63l9.68,5.39c.2,.11,.44,.12,.64,.01,0,0,3.7-1.84,4.27-2.12,.6,.34,16.35,9.11,16.94,9.43,.08,.61,.59,4.84,.59,4.84,.03,.22,.16,.41,.35,.52l9.64,5.37c.23,.13,.51,.11,.73-.03,.22-.15,.33-.4,.3-.66l-3.9-29.54c-.03-.22-.16-.41-.35-.51l-11.28-6.28c-.19-.11-.43-.12-.63-.02Zm2.63,9.66c.16,1.4,.78,6.8,.99,8.66-1.66-.93-7.1-3.96-8.74-4.87,1.66-.81,6.49-3.17,7.76-3.79Z"/>
  <path class="cls-6" d="M166.7,521.22c.62,.18,11.1,3.27,11.71,3.45,.22,.61,8.84,24.01,9.7,26.34-1.95-.58-8.37-2.47-8.92-2.63-.21-.58-1.64-4.59-1.64-4.59-.07-.21-.25-.37-.46-.43l-19.28-5.69c-.22-.07-.46-.02-.63,.13,0,0-3.21,2.61-3.7,3-.57-.17-7.02-2.07-8.96-2.64,1.95-1.49,21.67-16.54,22.19-16.93Zm4.03,5.83l-8.54,6.85c-.2,.16-.3,.42-.25,.68,.05,.25,.24,.46,.48,.53l12.17,3.59c.25,.07,.52,0,.7-.19,.18-.19,.24-.46,.15-.71l-3.63-10.43c-.07-.21-.25-.38-.46-.44-.22-.06-.45-.02-.62,.12Z"/>
  <path class="cls-5" d="M204.48,530.32l-2.27,23.8c-.04,.38,.24,.72,.62,.76l9.87,.94c.18,.02,.37-.04,.51-.15,.14-.12,.23-.29,.25-.47,0,0,.42-4.4,.52-5.49,1.26,.12,14.83,1.41,14.83,1.41,2.5,.24,3.15,.8,3.15,2.25,0,.21-.01,.45-.04,.7l-.27,2.86s0,.04,0,.07c0,.16,.06,.32,.16,.44,.12,.14,.29,.23,.47,.25l9.87,.94c.38,.04,.72-.24,.76-.62l.39-4.04c.03-.3,.04-.59,.04-.86,0-2.64-1.3-4-2.99-4.82,2.99-.88,3.89-2.85,4.14-5.49l.14-1.51c.04-.39,.06-.77,.06-1.13,0-4.62-3.03-6.98-9.66-7.61l-29.8-2.84c-.38-.04-.72,.24-.76,.62Zm10.62,7.68c1.26,.12,14.74,1.4,14.74,1.4,3.12,.3,3.69,.82,3.69,1.82,0,.11,0,.23-.02,.35l-.08,.79c-.09,.95-.4,1.79-3.13,1.53,0,0-14.36-1.37-15.63-1.49,.09-.92,.33-3.48,.42-4.4Z"/>
  <path class="cls-5" d="M297.89,530.51l-9.89,.76c-.18,.01-.35,.1-.47,.24-.11,.13-.17,.29-.17,.45,0,.02,.51,6.69,.6,7.86-1.25,.09-18.21,1.39-19.46,1.49-.09-1.17-.6-7.8-.6-7.8-.03-.38-.36-.67-.74-.64l-9.89,.76c-.18,.02-.35,.1-.47,.24-.12,.14-.18,.32-.16,.5l1.83,23.84c.03,.38,.36,.67,.75,.64l9.89-.76c.18-.01,.35-.1,.47-.24,.11-.13,.17-.29,.17-.45,0-.02-.55-7.2-.64-8.38,1.25-.09,18.22-1.4,19.46-1.49,.09,1.18,.64,8.33,.64,8.33,.03,.38,.36,.67,.74,.64l9.89-.76c.18-.01,.35-.1,.47-.24,.12-.14,.18-.32,.17-.5l-1.83-23.84c-.03-.38-.36-.67-.75-.64Z"/>
  <path class="cls-5" d="M349.57,518l-9.58,2.58c-.18,.05-.33,.16-.42,.32-.09,.16-.12,.35-.07,.53l3.59,13.33c.31,1.16,.29,1.99-.08,2.63-.49,.85-1.66,1.5-3.68,2.04l-9.49,2.56c-3.93,1.06-5,.06-5.6-2.15l-3.59-13.33c-.05-.18-.16-.33-.32-.42-.16-.09-.35-.12-.53-.07l-9.58,2.58c-.37,.1-.59,.48-.49,.85l4,14.86c1.66,6.16,6.87,7.97,15.95,5.52l13.72-3.69c9.07-2.44,12.68-6.62,11.02-12.78l-4-14.86c-.05-.18-.16-.33-.32-.42-.16-.09-.35-.12-.53-.07Z"/>
  <path class="cls-5" d="M384.6,501.63l-12.41,6.14c-5.78,2.86-8.75,5.27-9.61,7.82-.69,2.05,.08,3.9,1,5.76,1.02,2.06,2.05,3.55,3.75,4.12,2.57,.87,6.27-.28,15.26-4.72,7.23-3.58,11.06-5.43,12.07-5.09,.14,.05,.28,.16,.48,.58,.43,.86-.28,1.61-2.6,2.76l-10.89,5.39c-2.74,1.36-3.32,1.32-4.14-.25-.17-.34-.58-.47-.92-.3l-8.89,4.4c-.34,.17-.48,.59-.32,.93l.73,1.48c2.66,5.37,7.36,4.32,15.12,.48l10.77-5.33c7.43-3.67,11.39-6.08,12.38-9.03,.55-1.61,.27-3.34-.93-5.77-1.19-2.4-2.44-3.72-4.06-4.27-3.15-1.06-7.67,.76-17.27,5.53-5.73,2.86-9.18,4.58-10.13,4.26-.12-.04-.27-.14-.49-.59-.09-.18-.1-.34-.04-.53,.19-.56,1.02-1.24,2.27-1.86l9.85-4.87c3.7-1.83,3.92-1.4,4.5-.23,.17,.34,.58,.49,.93,.31l8.89-4.4c.34-.17,.48-.59,.31-.93l-.34-.68c-2.28-4.61-5.27-6.05-15.28-1.1Z"/>
  <path class="cls-2" d="M234.85,365.33c.45-.27,.88-.41,1.34-.4,.86,.03,1.88,.1,2.78,.11l.04-.04c.32-.43,.45-.97,.38-1.65-.16-1.54-1.37-2.59-2.91-2.51-1.54,.08-2.67,1.29-2.51,2.67,.08,.66,.34,1.31,.79,1.79,.01,.02,.03,.03,.04,.05l.06-.03Z"/>
  <path class="cls-2" d="M231.2,378.89c2.62-.51,4.87-.96,4.87-.96l-.26-2.51h-.05c-.5,.12-.99,.26-1.5,.4-.91,.26-1.74,.84-2.5,1.41-.23,.17-.64,.74-.6,1.18,0,.12,.04,.48,.04,.48Z"/>
  <path class="cls-2" d="M242.12,447.58h5.04l-.1-.1c-.59-.51-1.34-1.16-2.17-1.85l-.09-.06c-.11,.51-.69,.99-1.2,1.37-.39,.28-.83,.48-1.36,.62l-.11,.03Z"/>
  <path class="cls-4" d="M182.43,241.55c1.43-1.27,2.58-2.15,3.74-2.88,3.83-2.4,8.24-3.67,12.75-3.67,13.57,0,24.6,11.4,24.6,25.41s-11.04,25.41-24.6,25.41c-4.51,0-8.92-1.27-12.75-3.67-1.16-.72-2.31-1.61-3.74-2.88-1.12-.99-2.01-2.14-2.46-2.9,.14,.08,.27,.16,.42,.25l.87,.53c4.11,2.47,7.67,3.52,11.91,3.52,11.11,0,20.15-9.09,20.15-20.26s-9.04-20.26-20.15-20.26c-4.23,0-7.79,1.05-11.91,3.52l-.87,.53c-.15,.09-.28,.17-.42,.25,.45-.76,1.34-1.92,2.46-2.91Z"/>
  <path class="cls-3" d="M133.98,381.07V235.44c8.39-2.91,25.7-8.66,52.01-16.16h0c9.91-2.82,19.24-5.18,27.64-7.12l.18-.03c27.85,10.23,57.63,8.72,82.8,.5l.14,.02c7.84,1.84,16.42,4.03,25.5,6.62,26.3,7.5,43.61,13.25,52,16.16v145.87h-.18s-5.04,0-5.04,0v-68.77h2.01c1.01,0,1.5-.75,1.08-1.67l-18.19-40.16,.06-.03c2.12-1.25,3.54-3.55,3.54-6.18,0-3.95-3.21-7.16-7.16-7.16s-7.16,3.21-7.16,7.16c0,2.63,1.43,4.94,3.55,6.19l.05,.03-18.19,40.16c-.42,.92,.07,1.67,1.08,1.67h2v.08s0,26.3,0,26.3v.23c-1.12-8.09-3.56-15.38-7.22-21.45-6.41-10.65-16.16-17.07-28.21-18.58-1.5-.19-3.05-.3-4.9-.37-2.77-14.22-13.24-25.31-26.59-29.22h-.04v-13.6h.74c1.01,0,1.47-.74,1.03-1.65l-8.8-18.01,.04-.04c1.34-1.07,2.19-2.71,2.19-4.55,0-3.21-2.61-5.83-5.83-5.83s-5.83,2.61-5.83,5.83c0,1.84,.86,3.49,2.2,4.56l.04,.03-8.8,18.02c-.44,.91,.02,1.65,1.03,1.65h.74v13.59h-.05c-13.35,3.92-23.82,15.01-26.58,29.22-1.85,.07-3.4,.18-4.9,.37-12.04,1.5-21.79,7.93-28.2,18.58-3.63,6.03-6.06,13.26-7.2,21.28l-.02,.11v-26.47s0-.08,0-.08h2c1.01,0,1.49-.75,1.08-1.67l-18.19-40.16,.05-.03c2.13-1.24,3.55-3.55,3.55-6.19,0-3.95-3.21-7.16-7.16-7.16s-7.16,3.21-7.16,7.16c0,2.63,1.42,4.93,3.54,6.18l.06,.03-18.19,40.16c-.42,.92,.07,1.67,1.08,1.67h2.01v68.77h-5.2s0-.23,0-.23Zm51.5-143.5c-1.22,.76-2.42,1.69-3.91,3-1.39,1.23-3.28,3.54-3.21,4.67,.02,.3,.16,.55,.39,.7,.61,.4,1.14,.07,2.31-.65l.86-.52c3.9-2.34,7.26-3.34,11.24-3.34,10.4,0,18.86,8.51,18.86,18.97s-8.46,18.97-18.86,18.97c-3.98,0-7.34-1-11.24-3.34l-.86-.52c-1.17-.72-1.71-1.05-2.31-.65-.23,.15-.37,.4-.39,.7-.08,1.13,1.81,3.44,3.21,4.67,1.49,1.32,2.69,2.24,3.91,3,4.04,2.53,8.68,3.87,13.44,3.87,14.28,0,25.9-11.98,25.9-26.71s-11.62-26.71-25.9-26.71c-4.75,0-9.4,1.34-13.44,3.87Zm121.66-2.86l-5.13,12.99c-.02,.06-.12,.11-.18,.09l-13.35-4.09c-.64-.2-.97,.11-1.08,.25-.11,.14-.34,.53,0,1.11l6.96,12.11c.03,.06,0,.16-.05,.19l-11.52,7.89c-.55,.38-.52,.83-.48,1,.04,.17,.21,.59,.87,.7l13.81,2.11c.06,0,.13,.09,.12,.16l-1.01,13.93c-.05,.67,.32,.92,.48,1,.16,.08,.59,.21,1.09-.25l10.26-9.48s.15-.05,.2,0l10.26,9.48c.49,.46,.93,.32,1.09,.25,.16-.08,.54-.33,.49-1l-1.02-13.93c0-.07,.06-.15,.12-.16l13.81-2.11c.66-.1,.83-.52,.87-.7,.04-.18,.07-.63-.48-1l-11.52-7.89c-.06-.04-.08-.14-.04-.19l6.96-12.11c.33-.58,.11-.97,0-1.11-.11-.14-.44-.45-1.08-.25l-13.35,4.09c-.06,.02-.16-.03-.18-.09l-5.13-12.99c-.25-.62-.69-.69-.87-.69s-.62,.07-.87,.69Z"/>
  <path class="cls-4" d="M303.22,248.18s4.21-10.67,4.8-12.15c.6,1.52,4.8,12.15,4.8,12.15,.28,.7,1.05,1.07,1.76,.85,0,0,10.97-3.36,12.49-3.82-.81,1.42-6.5,11.32-6.5,11.32-.13,.22-.19,.47-.19,.71,0,.46,.22,.92,.62,1.2,0,0,9.47,6.48,10.77,7.38-1.61,.25-12.91,1.97-12.91,1.97-.7,.11-1.22,.72-1.22,1.43,0,.03,0,.07,0,.1,0,0,.83,11.44,.95,13.02-1.2-1.11-9.59-8.86-9.59-8.86-.55-.51-1.41-.51-1.96,0h0s-8.42,7.79-9.59,8.86c.12-1.63,.95-13.02,.95-13.02,0-.03,0-.07,0-.1,0-.7-.52-1.32-1.22-1.43,0,0-11.34-1.73-12.91-1.97,1.35-.92,10.77-7.38,10.77-7.38,.41-.28,.63-.73,.63-1.2,0-.25-.06-.49-.19-.71,0,0-5.72-9.94-6.51-11.32,1.56,.48,12.49,3.82,12.49,3.82,.71,.22,1.49-.15,1.76-.85Z"/>
  <path class="cls-2" d="M216.32,325.04c-.24,.34-.37,.81-.89,.73-.53-.08-1.13-.57-.28-.81,.85-.24,1.46-.32,1.17,.08Z"/>
  <path class="cls-3" d="M186.78,430.86c0-2.05,3.67-3.45,3.99-5.02,.32-1.56,.32-2.37,.65-4.8,.26-1.93,.72-3.83,.98-5.18,.07-.34,.26-.63,.41-.14,.26,.86,.63,2.37,.77,4.18,.22,2.86,.38,5.99,.38,8.69s-.16,5.45-1.08,7.45c-.92,2-1.94,3.94-1.89,5.5,.05,1.56-1.51,1.02-1.94,.54-.43-.49-1.57-3.56-.97-5.23,.59-1.67-1.29-4.05-1.29-5.99Z"/>
  <path class="cls-2" d="M290.32,324.83c-.11,.42-.78,.38,.43,.32,.43-.02,.51-.2,.11-.43-1.08-.62-.43-.3-.54,.11Z"/>
  <path class="cls-6" d="M396.04,72.95c7,.27,13.44,3.37,20.27,6.66,6.88,3.31,13.99,6.73,22.62,7.9,12.18,1.65,24.31-3.51,30.22-6.56-2.29,4.16-8.15,12.14-23.01,23.5-17.78,13.59-36.95,7.01-55.5,.64l-10.32-3.41c-14.19-4.32-27.64-.18-35.61,3.43,23.33-25.74,34.91-32.79,51.34-32.16Z"/>
  <path class="cls-5" d="M388.98,114.52l-17.61,18.5h0c-1.14,1.17-1.69,2.35-1.69,3.57,0,.05,0,.1,0,.16,.08,2.01,1.62,3.64,3.28,5.12l11.57,10.18c5.95,5.22,11.57,10.15,13.16,11.63,2.09,1.96,2.52,3.08,2.52,3.4,0,.02,0,.04,0,.05,0,0-.54,.59-3.55,.39l-.56-.04c-7.73-.53-25.82-1.76-40.66,10.77-9.33,7.87-13.09,11.78-14.6,13.67-.3,.38-1.22,1.53-.42,2.57,.53,.69,1.38,.79,2.53,.3,2.85-1.22,10.02-4.03,15.14-3.69,5.87,.39,14.9,4.51,19.75,6.72l1.75,.79c4.97,2.21,12.82-.32,23.32-7.52,14.07-9.65,26.58-18.95,36.18-26.9l1.21-1c6.33-5.23,12.31-10.16,12.06-14.71-.1-1.78-1.11-3.31-3-4.55-5.8-3.8-33.29-19.27-48.06-27.58l-3.89-2.19c-1.54-.87-5.15-2.9-8.42,.35Z"/>
  <path class="cls-6" d="M402.75,168.24c.75-1.73-.29-3.88-3.16-6.58-1.62-1.51-7.25-6.46-13.22-11.69l-11.55-10.17c-.99-.88-2.31-2.16-2.35-3.15,0-.18-.03-.72,.92-1.7,0,0,17.59-18.48,17.59-18.48,1.3-1.3,2.59-1.27,5.07,.12l3.89,2.19c13.69,7.7,42.17,23.73,47.9,27.48,1.68,1.1,1.73,2.06,1.75,2.38,.17,3.15-5.79,8.07-11.06,12.42l-1.22,1.01c-6.65,5.51-18.28,14.62-35.97,26.75-9.38,6.43-16.7,9.02-20.62,7.28l-1.72-.78c-5.01-2.29-14.34-6.54-20.72-6.97-4-.27-8.93,1.11-12.59,2.41,2.15-2.16,5.68-5.44,11.54-10.38,13.99-11.8,31.3-10.62,38.69-10.12l.56,.04c2.25,.15,5.35,.1,6.29-2.06Z"/>
  <path class="cls-5" d="M448.26,112.31c-7.18,4.83-14.92,7.33-23.68,7.65h0c-.82,.03-1.5,.57-1.69,1.34-.21,.85,.21,1.77,1.01,2.22l17.28,9.88c4.54,2.52,18.28,10.13,32.36-.68,6.98-5.36,8.36-12.12,8.63-14.78,.12-1.2-.47-1.74-.84-1.96-.37-.22-1.14-.47-2.16,.23-2.09,1.45-9.43,5.98-16,3.2-5.76-2.43-9.78-5.7-11.24-6.99-1.09-.96-2.83-.69-3.67-.12Z"/>
  <path class="cls-6" d="M449.81,114.61c.07-.03,.3-.06,.39-.04,1.84,1.65,5.99,4.91,11.9,7.4,6.56,2.77,13.25-.18,16.98-2.42-.65,2.85-2.39,7.26-7.23,10.97-11.32,8.7-22.14,4.43-29.3,.47,.02,0-10.26-5.87-14.96-8.56,8.09-.75,15.41-3.25,22.22-7.83Z"/>
  <path class="cls-2" d="M80.79,447s-10.9-3.74-10.92-3.74c-3.53-1.16-12.13-3.99-23.51-8.95,.94,.95,1.88,1.89,2.84,2.8,18.44,17.52,33.16,28.88,36.85,31.66,2.38-2.43,10.01-10.2,10.01-10.2,1.58-1.6,3.15-3.05,4.98-3.2,2.8-.22,7.98,.88,16.78,7.34,12.39,9.08,19.49,13.41,24.51,14.92,1.82,.55,2.86,.25,3.41-.09,.51-.32,.71-.75,.74-.95,.02-.1,.03-.21,.03-.31,0-.64-.3-1.38-.92-2.23-1.8-2.49-6.03-5.55-11.88-9.77-3.73-2.69-7.95-5.74-12.8-9.53-6.84-5.79-14.59-12.75-23.02-20.7-6.96-6.55-15.1-14.6-24.13-23.82,1.81,4.36,3.66,8.66,5.6,12.75l3.29,7.44c2.75,6.21,4.51,10.21,5.51,12.84,1.36,3.54,1.73,6.29,1.73,6.29,0,0-3.66-.52-9.08-2.54Z"/>
  <path class="cls-2" d="M103.93,466.93c-.06-.35-.08-.62-.08-.82,0-.49,.11-.64,.12-.64,0,0,1.35-.68,7.75,4.06l6.02,4.51c8.55,6.45,13.67,10.29,19.7,11.84-.44,.47-.93,.98-.93,.98h0s-2.93,3.02-3.85,3.98c-20.01-10.81-28-19.43-28.73-23.91Z"/>
  <path class="cls-2" d="M390.5,474.04l6.02-4.51c6.39-4.74,7.74-4.07,7.75-4.06,0,0,.11,.14,.11,.64,0,.21-.02,.48-.08,.82-.73,4.48-8.71,13.1-28.73,23.91-.93-.96-3.85-3.98-3.85-3.98h0s-.49-.51-.93-.98c6.03-1.55,11.15-5.39,19.7-11.84Z"/>
  <path class="cls-2" d="M427.45,447l10.9-3.74c3.54-1.16,12.15-3.99,23.53-8.96-.94,.95-1.88,1.89-2.84,2.8-18.44,17.52-33.16,28.88-36.85,31.66-1.26-1.28-10.01-10.2-10.01-10.2-1.58-1.6-3.15-3.05-4.98-3.2-2.8-.22-7.98,.88-16.78,7.34-12.39,9.08-19.49,13.41-24.52,14.92-1.82,.55-2.86,.25-3.41-.09-.51-.32-.71-.75-.74-.95-.02-.1-.02-.21-.02-.31,0-.64,.3-1.38,.92-2.23,1.8-2.49,6.03-5.55,11.88-9.77,3.73-2.69,7.95-5.74,12.76-9.5,6.88-5.82,14.62-12.78,23.06-20.72,6.96-6.55,15.1-14.6,24.13-23.82-1.8,4.36-3.66,8.65-5.59,12.72-.01,.03-3.3,7.47-3.3,7.47-2.36,5.32-3.96,9.04-5.04,11.63-1.87,4.5-1.54,7-1.54,7,0,0,3.07-.08,8.41-2.04Z"/>
  <path class="cls-1" d="M77.12,437.1s-1.69-2.62-3.41-6.67c-11.4-23.08-17.84-44.7-20.21-53.46,8.69,9.33,31.16,33.18,50.08,50.99,10.34,9.74,18.26,16.55,23.71,21.26,5.58,4.81,9.2,7.31,9.2,7.31,0,0-2.69-4.54-5.41-10.33-1.56-3.34-2.72-6.76-3.72-10.16-2.06-6.99-3.1-14-3.1-20.97V228.59c3.84-1.42,23.24-8.44,59.06-18.65,5.49-1.56,10.81-2.99,15.89-4.28l.14-.03c3.47,1.87,6.99,3.52,10.54,4.98l-.15,.04c-7.55,1.79-15.75,3.9-24.4,6.36h0c-27.13,7.73-44.81,13.64-52.93,16.47-.47,.17-.79,.61-.79,1.11v180.48c0,31.81,25.57,65.72,63.63,84.38,16.05,7.87,35.86,11.86,58.87,11.86s42.81-3.99,58.87-11.86c38.06-18.66,63.63-52.56,63.63-84.37V234.6c0-.5-.32-.95-.79-1.11-8.12-2.83-25.8-8.74-52.93-16.47-7.73-2.2-15.12-4.12-22-5.78l-.12-.03c3.91-1.42,7.7-3,11.33-4.73l.14,.02c4.09,1.06,8.32,2.21,12.66,3.45,35.82,10.21,55.22,17.22,59.06,18.65v186.49c0,10.39-2.31,20.89-6.88,31.27-2.21,5.02-4.46,9.02-4.46,9.02,0,0,4.08-2.42,7.86-5.76,5.54-4.64,13.54-11.64,24.17-21.65,18.93-17.81,41.4-41.67,50.08-50.99-2.43,9.01-9.31,31.52-21.17,55.39l-2.07,4.17s6.27-1.83,7.62-2.28c8.58-2.89,27.41-9.97,48.75-22.53-1.36,4.36-6.19,15.36-23.08,31.41-18.5,17.58-33.33,29.07-37.44,32.18l-1.05,.9,6.53,6.97c4.99,5.39,6.98,8.31,6.98,12.46,0,.59-.04,1.21-.12,1.86-1.6,13.34-28.01,35.37-83.39,54.53-30.12,10.42-66.41,16.15-102.17,16.15h0c-35.76,0-72.05-5.74-102.17-16.15-55.38-19.15-81.79-41.19-83.39-54.53-.08-.65-.12-1.27-.12-1.86,0-4.15,1.99-7.07,6.98-12.46,0,0,6.7-7.02,6.7-7.02,0,0-2.22-1.61-2.89-2.12-5.63-4.34-19.24-15.2-35.78-30.91-16.88-16.04-21.72-27.03-23.08-31.4,21.43,12.61,40.3,19.72,48.85,22.55,6.42,2.13,7.9,2.81,7.9,2.81Zm19.21,32.94s-13.45,13.87-16.53,17.19c-4.25,4.59-5.41,6.39-5.41,8.4l.09,1.16c.77,6.42,16.54,27.85,79.42,49.6,29.51,10.21,65.1,15.83,100.22,15.83s70.71-5.62,100.22-15.83c62.88-21.74,78.65-43.17,79.42-49.6l.09-1.16c0-2.01-1.16-3.81-5.41-8.4-2.78-3-16.65-17.36-16.65-17.36,0,0,.1,1.54-1.45,4.06-10.37,16.86-49.02,33.36-61.09,38.09-30.09,11.79-58.54,16.82-95.13,16.82s-65.03-5.03-95.13-16.82c-9.75-3.82-37.07-15.2-52.5-28.43-3.36-2.88-6.09-5.89-8.09-8.84-1.63-2.41-2.08-4.72-2.08-4.72Zm-24.83-58.95c1.83,4.42,3.73,8.73,5.69,12.86-.01-.03,3.28,7.42,3.28,7.42,3.06,6.9,5.74,12.94,6.25,15.1-.93-.21-2.75-.84-5.14-1.69l-10.96-3.75c-3.82-1.25-13.52-4.44-26.28-10.18-4.22-1.86-7.04-3.17-7.04-3.17,0,0,3.64,4.54,10.26,11.15,2.95,2.95,5.95,5.58,8.74,8.11,12.83,11.63,22.91,19.59,27.12,22.81,1.01,.78,2.82,2.18,2.82,2.18l11.48-11.7c.95-.96,2.38-2.41,3.48-2.5,1.96-.15,6.55,.54,15.2,6.88,12.62,9.25,19.93,13.68,25.23,15.28,2.67,.8,4.38,.25,5.34-.35,.97-.61,1.65-1.57,1.82-2.57,.22-1.37-.2-2.78-1.31-4.31-2.02-2.8-6.38-5.95-12.41-10.3-3.71-2.68-7.91-5.71-12.69-9.45-6.77-5.74-14.49-12.67-22.9-20.58-7.21-6.79-15.67-15.09-25.1-24.79-5.2-5.36-7.08-7.04-7.08-7.04,0,0,1.89,4.72,4.2,10.61Zm70.2,73.33s-.75-.12-3.09-.66c-5.86-1.34-10.86-5.12-19.46-11.6l-6.04-4.52c-6.9-5.11-9.17-4.91-10.38-4.18-1.07,.65-1.45,1.95-1.14,3.85,1.05,6.43,11.96,15.83,29.29,25.27,.45,.25,2.27,1.17,2.27,1.17l8.54-9.33Zm232.81,8.71c.37,.38,1,.43,1.46,.18,18.12-9.69,29.58-19.41,30.65-26,.31-1.91-.07-3.2-1.14-3.85-1.21-.74-3.49-.93-10.38,4.18l-6.04,4.52c-8.07,6.09-13.01,9.66-18.38,11.33-3.4,1.06-4.32,1.14-4.32,1.14l8.15,8.5Zm47.6-21.17s1.87-1.59,3.14-2.56c5.44-4.2,18.98-14.97,35.41-30.58,1.31-1.25,2.61-2.49,3.88-3.84,4.15-4.43,5.98-6.76,5.98-6.76,0,0-3.92,1.41-7.83,3.16-12.15,5.44-21.39,8.44-25.07,9.64-.02,0-10.97,3.76-10.97,3.76-2.38,.84-4.19,1.48-5.14,1.68,.52-2.17,3.19-8.2,6.25-15.09l3.29-7.45c2.35-4.97,4.72-10.18,6.81-15.6,1.25-3.23,2.75-7.94,2.75-7.94,0,0-1.17,1.33-5.86,6.22-9.75,10.14-18.57,18.71-26.01,25.72-8.41,7.91-16.12,14.85-22.93,20.61-4.74,3.71-8.95,6.74-12.65,9.42-6.03,4.36-10.39,7.5-12.41,10.3-1.11,1.53-1.53,2.94-1.31,4.31,.16,1,.84,1.96,1.82,2.57,.96,.6,2.67,1.15,5.34,.35,5.3-1.6,12.61-6.02,25.23-15.28,8.65-6.34,13.24-7.04,15.2-6.88,1.11,.09,2.54,1.54,3.48,2.5l11.61,11.75Zm-267.71,7.46l-15.5,17.17s2.52,1.37,3.15,1.66c5.95,2.82,12.37,5.59,19.11,8.23,29.36,11.5,57.16,16.4,92.95,16.4s63.59-4.91,92.95-16.4c6.52-2.56,12.71-5.3,18.53-7.96,2.98-1.36,3.77-1.81,3.77-1.81l-15.5-17.5s-.9,1.15-2.49,2.67c-10.07,9.68-21.97,17.72-35.16,24.19-17.07,8.37-37.96,12.61-62.1,12.61s-45.03-4.24-62.1-12.61c-12.88-6.31-24.45-14.22-34.45-23.52-.56-.52-3.16-3.13-3.16-3.13Z"/>
  <path class="cls-6" d="M117.51,499.19c.57,.31,10.11,5.63,10.67,5.94,.08,.64,3.35,25.37,3.67,27.83-1.78-.99-7.62-4.25-8.13-4.53-.08-.61-.59-4.84-.59-4.84-.03-.22-.16-.41-.35-.52l-17.56-9.78c-.2-.11-.44-.12-.65-.02,0,0-3.7,1.84-4.27,2.12-.52-.29-6.4-3.56-8.17-4.55,2.23-1.03,24.78-11.37,25.37-11.65Zm2.65,6.58l-9.83,4.8c-.23,.11-.38,.35-.39,.6,0,.26,.13,.5,.36,.62l11.08,6.17c.23,.13,.51,.12,.72-.03,.22-.14,.33-.4,.3-.66l-1.25-10.98c-.02-.22-.16-.42-.36-.53-.2-.11-.44-.11-.64-.01Z"/>
  <path class="cls-6" d="M240.84,550.23c.68,.69,1.11,1.56,1.11,2.87,0,.23-.01,.47-.04,.72,0,0-.23,2.4-.32,3.35-1.11-.11-7.39-.7-8.49-.81,.08-.79,.21-2.17,.21-2.17,.02-.25,.04-.49,.04-.71,0-2.74-1.76-3.5-4.39-3.75l-15.52-1.48c-.38-.04-.72,.24-.76,.62,0,0-.42,4.4-.52,5.49-1.11-.11-7.39-.7-8.49-.81,.12-1.26,2.02-21.16,2.14-22.42,1.32,.12,29.11,2.77,29.11,2.77,7.01,.67,8.41,3.25,8.41,6.15,0,.36-.02,.72-.06,1.08l-.14,1.51c-.18,1.89-.64,3.19-2.16,3.95-2.23,1.12-3.92,1.24-3.92,1.24,0,0,2.09,.62,3.81,2.37Zm-27.05-13.05l-.55,5.79c-.02,.18,.04,.37,.15,.51,.12,.14,.29,.23,.47,.25l16.32,1.56c1.86,.18,4.37,.08,4.64-2.78l.08-.79c.28-2.95-2.17-3.42-4.92-3.69l-15.43-1.47c-.38-.04-.72,.24-.75,.62Z"/>
  <path class="cls-6" d="M297.3,531.94c.1,1.27,1.62,21.19,1.72,22.45-1.11,.08-7.4,.57-8.51,.65-.09-1.18-.64-8.33-.64-8.33-.03-.38-.36-.67-.74-.64l-20.85,1.6c-.37,.03-.64,.33-.64,.69,0,.02,.55,7.21,.64,8.38-1.11,.08-7.4,.57-8.51,.65-.1-1.27-1.62-21.19-1.72-22.45,1.11-.08,7.4-.57,8.51-.65,.09,1.17,.6,7.8,.6,7.8,.03,.38,.36,.67,.74,.64l20.85-1.6c.18-.01,.35-.1,.47-.24,.11-.13,.17-.29,.17-.45,0-.02-.51-6.69-.6-7.86,1.11-.08,7.4-.57,8.51-.65Z"/>
  <path class="cls-6" d="M349.26,519.52c.33,1.22,3.82,14.19,3.82,14.19,.23,.85,.35,1.66,.35,2.41,0,4.04-3.31,6.76-10.38,8.67l-13.72,3.7c-8.4,2.26-12.79,.86-14.25-4.54,0,0-3.49-12.97-3.82-14.19,1.07-.29,7.17-1.93,8.24-2.22,.33,1.21,3.41,12.66,3.41,12.66,.91,3.37,3.02,4.28,7.3,3.13l9.49-2.56c2.43-.65,3.83-1.48,4.52-2.69,.32-.56,.49-1.19,.49-1.91,0-.53-.09-1.12-.26-1.77,0,0-3.08-11.45-3.41-12.66,1.07-.29,7.17-1.93,8.24-2.22Z"/>
  <path class="cls-6" d="M367.77,524.16c-1.26-.43-2.07-1.63-2.95-3.42-.82-1.65-1.45-3.15-.93-4.7,.72-2.14,3.56-4.37,8.91-7.02l12.41-6.14c10.59-5.24,11.96-2.46,13.42,.47,0,0,.02,.05,.03,.06-1.01,.5-6.9,3.41-7.75,3.83-1.06-1.57-2.45-1.55-5.94,.17l-9.85,4.87c-1.65,.82-2.65,1.71-2.97,2.66-.18,.53-.14,1.09,.11,1.59,.24,.48,.6,1.06,1.29,1.29,1.43,.48,3.5-.5,11.19-4.33,9.05-4.5,13.54-6.36,16.21-5.46,1.26,.42,2.24,1.49,3.26,3.56,1.02,2.07,1.28,3.47,.86,4.71-.84,2.48-4.75,4.8-11.68,8.23l-10.77,5.33c-8.21,4.06-11.31,4.09-13.26,.15,0,0-.22-.44-.42-.86,1-.5,6.82-3.37,7.72-3.82,1.54,2.26,3.61,1.27,5.61,.28l10.89-5.39c1.44-.71,4.43-2.19,3.23-4.62-.25-.5-.59-1.04-1.28-1.27-1.46-.5-3.64,.46-13.13,5.16-8.39,4.15-12.1,5.37-14.2,4.65Z"/>
  <path class="cls-2" d="M154.55,482.88c10.49,10.05,22.71,18.58,36.43,25.3,12.16,5.96,26.24,9.82,41.97,11.63-25.79-1.66-47.91-6.53-70.92-15.54-6.87-2.69-13.35-5.52-19.38-8.39,5.56-5.77,9.45-10.13,11.91-13Z"/>
  <path class="cls-2" d="M317.26,508.18c13.71-6.72,25.94-15.25,36.43-25.3,2.46,2.88,6.36,7.24,11.9,13-6.03,2.88-12.51,5.7-19.38,8.39-23.01,9.01-45.12,13.88-70.92,15.54,15.72-1.81,29.8-5.67,41.97-11.63Z"/>
  <path class="cls-6" d="M240.35,175.85c-.14-.1-.23-.37-.23-.71V96.44c0-1.21,.97-2.82,2.04-3.39,0,0,65.2-34.44,68.6-36.24,0,.19-.02,.34-.02,.54,0,4.3,.8,10.21,4.55,14.24,2.69,2.89,6.46,4.36,11.2,4.36,10.01,0,16.39-6.03,19.21-9.41,.04,.33,.11,.59,.11,.98,0,1.81-.53,4.27-2.46,7.24l-.1,.13c-.18,.25-.27,.53-.27,.82,0,.38,.15,.75,.45,1.02,.52,.48,1.31,.49,1.85,.03,0,0,4.45-3.84,5.35-4.62,1.23,1.42,3.29,3.52,5.61,5.01-6.56,4.92-27.42,20.64-35.31,27.47-.41,.36-.65,.87-.65,1.39,0,.13,.02,.26,.05,.38,.15,.62,.64,1.08,1.3,1.24,3.19,.77,31.42,8,38.29,24.36,1.07,2.56,2.51,7.1,2.51,13.03,0,13.43-7.39,33.97-43.21,54.61-35.22,20.3-89.78,26.55-132.29-5.22-3.24-2.42-6.29-4.97-9.07-7.57-1.16-1.08-2.69-1.02-3.91,.17,0,0-13.12,13.34-14.43,14.68v-14.46c0-1.6-.42-2.86-1.33-3.95l-24.04-29.64c-.26-.36-.75-.68-1.2-.68h-51.71c-.45,0-.88,.22-1.14,.59l-5.78,8.31c-.29,.41-.33,.95-.11,1.4,.22,.45,.67,.75,1.17,.78,.35,.02,8.53,.59,14.7,9.92-.03-.05-.06-.1-.09-.16,.3,.62,.86,1.07,1.49,1.21,.62,.13,1.25-.04,1.79-.48,0,0,6.94-6.03,7.39-6.42,.07-.02,.11-.02,.15-.03,1.41,.77,2.51,1.63,3.19,2.45-4.1,3.38-23.85,19.85-29.67,25.87-3.48,3.6-4.62,7.09-4.95,9.7-3.27-3.85-8.9-9.45-15.58-11.67-7.53-2.51-16.06-1.02-21.69,.56,4.74-4.85,12.73-13.61,20.64-24.94l42.87-61.66c.23-.37,.31-.73,.31-1.05,0-.63-.32-1.13-.49-1.4l-10.12-12.49c-6.98-8.27-19.65-8.79-25.63-8.53,4.53-4.6,15.61-13.34,33.86-12.67,18.66,.68,28.85,16.09,28.95,16.25,.24,.36,.63,.6,1.06,.63,.43,.03,.86-.14,1.14-.47l11.43-13.05c.14-.16,.3-.25,.46-.24,.16,0,.32,.09,.46,.26l31.89,39.32c.46,.62,1.28,1,2.09,.93,.79-.07,1.49-.55,1.86-1.28,1.71-3.4,3.44-6.72,5.67-10.01,7.33-10.82,17.82-18.56,33-24.33,18.3-6.96,33.65-7.26,41.01-6.85-10.08,5.67-36.41,24.04-36.41,61.17,0,30.3,9.63,48.56,30.32,57.47,14.75,6.35,36.05,5.99,51.81-.89,9.14-3.99,15.25-9.72,17.69-16.57,1.68-4.75,2.09-12.92-2.33-20.33-3.15-5.3-10-12.09-24.73-14.4l-5.09-.59c-.36-.02-1.2-.07-1.84,.54l-.62,1.63v15.32c0,1.16-.98,2.63-2.05,3.08l-38.25,15.96c-.32,.13-.6,.15-.75,.06Zm88.63-88.66l-.44,.27c-2.46,1.46-5.23,2.93-8.21,4.36-11.13,5.36-19.98,6.81-25.6,4.19-4.14-1.93-5.45-5.5-5.82-6.95-.26-1.02-.92-1.32-1.29-1.41-.72-.18-1.35,.17-1.7,.56l-4.12,4.12c-.26,.26-.41,.61-.41,.98v32.95c0,.56,0,2.26,1.3,2.87,1.28,.6,2.52-.43,2.93-.77l3.53-3.04,2.2-1.93,39.26-33.97c.32-.27,.48-.66,.48-1.05,0-.29-.09-.57-.27-.82-.43-.58-1.23-.74-1.84-.36Zm-223.86,31.79c-.92,.01-1.47,.74-1.65,.98-.01,.01-14.83,21.33-14.83,21.33l-.18,.25c-.3,.42-.34,.98-.1,1.44,.24,.46,.71,.75,1.23,.75h33.6c.53,0,1.02-.31,1.25-.79,.23-.48,.16-1.05-.17-1.47l-17.5-21.59c-.18-.22-.74-.92-1.65-.91Z"/>
  <path class="cls-6" d="M138.43,311.56c-.97,0-1.21-.84-.99-1.3l17.72-39.12h.03c.82,.33,1.72,.51,2.66,.51s1.83-.18,2.65-.51l.04-.02,17.8,39.3c.23,.52,.15,1.14-.87,1.14h-.96c-.29,0-.61-.22-.72-.48l-10.72-26.28c-.11-.26-.12-.26-.03,0l9.05,26.26c.09,.27-.07,.49-.35,.49h-2.95c-.29,0-.58-.23-.66-.5l-9.11-32.5c-.08-.28-.09-.27-.03,0l7.12,32.49c.06,.28-.12,.51-.41,.51h-3.81c-.29,0-.55-.23-.59-.52l-3.97-31.61c-.04-.28-.05-.28-.03,0l2.19,31.6c.02,.29-.2,.52-.48,.52h-5.43c-.29,0-.51-.23-.5-.52l1.36-34.08c.01-.29,0-.29-.02,0l-2.93,34.08c-.03,.29-.28,.52-.57,.52h-4.03c-.29,0-.48-.23-.43-.51l5.32-30.43c.05-.28,.04-.29-.03,0l-7.31,30.44c-.07,.28-.36,.51-.64,.51h-4.03c-.29,0-.44-.22-.35-.49l9.26-26.59c.09-.27,.08-.28-.03-.01l-11.14,26.61c-.11,.26-.36,.48-.55,.48h-.51Z"/>
  <path class="cls-4" d="M151.67,264.49c0-3.41,2.78-6.19,6.19-6.19s6.19,2.78,6.19,6.19-2.78,6.19-6.19,6.19-6.19-2.78-6.19-6.19Z"/>
  <path class="cls-6" d="M153.34,327.08c0,.2-.33,.36-.74,.36h-3.87c-.4,0-.73-.33-.73-.73v-5.87c0-.4,.33-.74,.74-.74h18.26c.4,0,.73,.33,.73,.74v5.87c0,.4-.32,.73-.73,.73h-3.88c-.4,0-.73-.16-.73-.36s0-.53,0-.53c0-2.08-2.02-3.76-4.52-3.76s-4.52,1.68-4.52,3.76c0,0,0,.33,0,.53Z"/>
  <path class="cls-6" d="M158.09,390.82v-.41c0-.23,.33-.41,.73-.41h18.26c.4,0,.73,.33,.73,.73v5.79c0,.4-.33,.73-.73,.73h-12.34v-.05c-.27-3.46-3.1-6.22-6.6-6.37h-.06Z"/>
  <path class="cls-6" d="M150.97,397.25h-12.34c-.4,0-.73-.33-.73-.74v-5.79c0-.4,.33-.73,.74-.73h18.27c.4,0,.73,.19,.73,.41v.41h-.06c-3.49,.15-6.33,2.9-6.59,6.36v.06Z"/>
  <path class="cls-6" d="M151.41,397.73c0-3.56,2.89-6.45,6.45-6.45s6.45,2.89,6.45,6.45-2.89,6.45-6.45,6.45-6.45-2.89-6.45-6.45Zm1.38,0c0,2.8,2.27,5.07,5.07,5.07s5.08-2.27,5.08-5.07-2.27-5.08-5.08-5.08-5.07,2.27-5.07,5.08Z"/>
  <path class="cls-6" d="M133.98,412.67v-7.23l.16-.02h2.57c.4,0,.73,.33,.73,.73v5.79c0,.4-.33,.73-.74,.73h-2.61s-.12,0-.12,0Z"/>
  <path class="cls-6" d="M133.98,389.54v-7.24l.12-.02h12.7c.4,0,.73,.33,.73,.73v5.8c0,.4-.33,.74-.73,.74h-12.82Z"/>
  <path class="cls-6" d="M179.01,405.41h5.3c.41,0,.73,.33,.73,.73v5.79c0,.41-.33,.73-.73,.73h-5.3c-.4,0-.73-.33-.73-.73v-5.79c0-.4,.33-.73,.73-.73Z"/>
  <path class="cls-6" d="M133.98,397.25v-7.26h.16s2.56,.01,2.56,.01c.4,0,.73,.33,.73,.73v5.79c0,.41-.33,.74-.74,.74h-2.72Z"/>
  <path class="cls-6" d="M168.92,320.1h5.91c.4,0,.73,.33,.73,.73v5.88c0,.41-.33,.74-.74,.74h-5.9c-.4,0-.73-.33-.73-.73v-5.88c0-.4,.33-.73,.73-.73Z"/>
  <path class="cls-6" d="M140.9,327.44c-.4,0-.73-.33-.73-.73v-5.87c0-.4,.33-.73,.73-.74h5.91c.4,0,.73,.32,.73,.73v5.87c0,.4-.33,.73-.73,.73h-5.91Z"/>
  <path class="cls-6" d="M158.82,319.65c-.4,0-.73-.33-.73-.73v-5.65c0-.4,.33-.73,.73-.73h15.99c.4,0,.73,.33,.74,.73v5.65c0,.4-.33,.74-.73,.74h-16Z"/>
  <path class="cls-6" d="M157.63,318.91c0,.4-.33,.73-.73,.73h-16c-.4,0-.73-.32-.73-.73v-5.65c0-.4,.33-.73,.73-.73h16c.4,0,.73,.33,.73,.73v5.65Z"/>
  <path class="cls-6" d="M140.16,334.51c0,.4,.33,.73,.73,.73h11.71c.4,0,.73-.33,.73-.73v-5.84c0-.4-.33-.74-.73-.74h-11.71c-.4,0-.73,.32-.73,.73v5.85Z"/>
  <path class="cls-6" d="M163.11,327.93h11.71c.4,0,.73,.33,.73,.73v5.85c0,.41-.33,.74-.74,.74h-11.71c-.41,0-.73-.33-.73-.73v-5.85c0-.41,.33-.73,.73-.73Z"/>
  <path class="cls-6" d="M148.72,335.69h3.88c.41,0,.74,.33,.74,.74v5.87c0,.4-.33,.73-.73,.73h-3.89c-.41,0-.73-.33-.73-.73v-5.87c0-.4,.33-.73,.73-.73Z"/>
  <path class="cls-6" d="M175.56,350.1c0,.4-.33,.73-.73,.73h-11.71c-.41,0-.73-.33-.73-.73v-5.88c0-.4,.33-.73,.73-.73h11.71c.4,0,.73,.33,.73,.73v5.88Z"/>
  <path class="cls-6" d="M140.9,343.49h11.71c.4,0,.73,.33,.73,.73v5.88c0,.4-.33,.73-.73,.73h-11.71c-.4,0-.73-.33-.73-.73v-5.88c0-.41,.33-.73,.73-.73Z"/>
  <path class="cls-6" d="M140.9,335.69h5.91c.41,0,.73,.33,.73,.73v5.87c0,.4-.33,.73-.73,.73h-5.91c-.4,0-.73-.33-.73-.73v-5.87c0-.41,.33-.73,.73-.73Z"/>
  <path class="cls-6" d="M163.11,335.69h3.88c.41,0,.73,.33,.73,.73v5.87c0,.41-.33,.74-.74,.74h-3.88c-.41,0-.74-.33-.74-.74v-5.87c0-.41,.33-.73,.73-.73Z"/>
  <path class="cls-6" d="M168.91,335.69h5.91c.41,0,.74,.33,.74,.74v5.87c0,.41-.33,.73-.73,.73h-5.91c-.41,0-.74-.33-.74-.74v-5.87c0-.41,.33-.74,.74-.74Z"/>
  <path class="cls-6" d="M168.91,351.29h5.91c.41,0,.73,.33,.73,.73v5.88c0,.41-.33,.73-.73,.73h-5.91c-.41,0-.73-.33-.73-.73v-5.88c0-.41,.33-.73,.73-.73Z"/>
  <path class="cls-6" d="M162.38,351.29v1.45c0,.29-.24,.52-.52,.52h-8c-.29,0-.52-.23-.52-.52v-1.45s-4.61,0-4.61,0c-.4,0-.73,.33-.73,.73v5.88c0,.4,.33,.73,.73,.73h18.27c.4,0,.73-.33,.73-.73v-5.88c0-.4-.33-.73-.73-.73h-4.62Z"/>
  <rect class="cls-6" x="158.09" y="359.08" width="17.47" height="7.34" rx=".73" ry=".73"/>
  <path class="cls-6" d="M168.91,366.88h5.92c.41,0,.73,.33,.73,.73v5.87c0,.41-.33,.73-.73,.73h-5.91c-.41,0-.74-.33-.74-.74v-5.87c0-.4,.33-.73,.73-.73Z"/>
  <path class="cls-6" d="M140.9,374.68h16c.41,0,.73,.33,.73,.73v5.16c0,.41-.33,.73-.73,.73h-16c-.41,0-.73-.33-.73-.73v-5.16c0-.4,.33-.73,.73-.73Z"/>
  <path class="cls-6" d="M158.82,374.68h16c.41,0,.73,.33,.73,.73v5.16c0,.4-.33,.73-.73,.73h-16c-.41,0-.73-.33-.73-.73v-5.16c0-.41,.33-.73,.73-.73Z"/>
  <path class="cls-6" d="M140.9,366.88h5.91c.4,0,.73,.33,.73,.73v5.87c0,.41-.33,.74-.74,.74h-5.9c-.41,0-.74-.33-.74-.74v-5.87c0-.4,.33-.73,.73-.73Z"/>
  <path class="cls-6" d="M148.73,366.88h18.27c.41,0,.73,.33,.73,.73v5.87c0,.41-.33,.74-.74,.74h-18.27c-.41,0-.74-.33-.74-.74v-5.87c0-.4,.33-.73,.73-.73Z"/>
  <path class="cls-6" d="M140.9,359.08h16c.41,0,.73,.33,.73,.73v5.88c0,.41-.33,.74-.74,.74h-16c-.41,0-.73-.33-.73-.73v-5.88c0-.41,.33-.74,.74-.74Z"/>
  <path class="cls-6" d="M140.9,351.29h5.91c.41,0,.73,.33,.73,.73v5.88c0,.4-.33,.73-.73,.73h-5.91c-.41,0-.73-.33-.73-.73v-5.88c0-.4,.33-.73,.73-.73Z"/>
  <path class="cls-6" d="M150.96,397.73c0,3.8,3.1,6.9,6.9,6.9s6.91-3.1,6.91-6.9v-.03h2.23c.4,0,.73,.33,.73,.73v5.79c0,.4-.33,.73-.73,.73h-18.27c-.4,0-.73-.33-.73-.73v-5.79c0-.4,.33-.73,.73-.73h2.23v.03Z"/>
  <path class="cls-6" d="M133.98,404.95v-7.25h.18s12.64,0,12.64,0c.4,0,.73,.33,.73,.73v5.79c0,.4-.33,.73-.73,.73h-12.59s-.23-.01-.23-.01Z"/>
  <path class="cls-6" d="M168.91,397.71h15.39c.41,0,.73,.33,.73,.73v5.79c0,.4-.33,.73-.73,.73h-15.4c-.4,0-.73-.33-.73-.73v-5.79c0-.41,.33-.73,.73-.73Z"/>
  <path class="cls-6" d="M171.84,412.67h5.25c.4,0,.73-.33,.73-.73v-5.79c0-.4-.33-.73-.73-.73h-18.26c-.4,0-.73,.33-.73,.73v5.79c0,.4,.33,.73,.73,.73h5.26l.02-.05c.55-1.54,2.07-2.65,3.86-2.65s3.3,1.1,3.86,2.63l.02,.07Z"/>
  <path class="cls-6" d="M172.04,420.99v7.09h5.05c.4,0,.73-.33,.73-.73v-5.79c0-.4-.33-.73-.74-.73h-5.04v.16Z"/>
  <path class="cls-6" d="M148.73,382.28h18.26c.41,0,.73,.33,.73,.73v5.8c0,.41-.33,.73-.73,.73h-18.27c-.4,0-.73-.33-.73-.73v-5.8c0-.41,.33-.74,.74-.74Z"/>
  <path class="cls-6" d="M168.91,382.28h15.39c.41,0,.73,.33,.73,.73v5.8c0,.41-.33,.73-.73,.73h-15.39c-.41,0-.73-.33-.73-.73v-5.8c0-.41,.33-.73,.73-.73Z"/>
  <path class="cls-6" d="M179.01,390h5.3c.4,0,.73,.33,.73,.73v5.79c0,.41-.33,.73-.73,.73h-5.29c-.41,0-.74-.33-.74-.74v-5.78c0-.4,.33-.73,.73-.73Z"/>
  <path class="cls-6" d="M143.68,421v7.08h-5.05c-.4,0-.73-.33-.73-.73v-5.79c0-.4,.33-.73,.73-.73h5.05v.17Z"/>
  <path class="cls-6" d="M143.91,412.59c.56-1.53,2.07-2.62,3.85-2.62s3.32,1.11,3.86,2.66v.04h5.28c.4,0,.73-.33,.73-.73v-5.79c0-.4-.33-.73-.73-.73h-18.26c-.41,0-.74,.33-.74,.73v5.79c0,.4,.33,.73,.73,.73h5.25l.02-.08Z"/>
  <polygon class="cls-6" points="151.84 428.73 151.84 435.53 151.84 435.79 163.87 435.79 163.88 435.56 163.88 428.8 163.87 428.54 151.84 428.54 151.84 428.73"/>
  <path class="cls-6" d="M151.84,428.08h5.06c.4,0,.73-.33,.73-.73v-5.79c0-.4-.33-.73-.73-.73h-5.06v.19s0,6.8,0,6.8v.26Z"/>
  <path class="cls-6" d="M163.87,428.08h-5.05c-.4,0-.73-.33-.73-.73v-5.79c0-.4,.33-.73,.73-.73h5.05v.12s0,6.98,0,6.98v.15Z"/>
  <path class="cls-6" d="M179.01,420.83h5.3c.4,0,.73,.33,.73,.73v5.79c0,.41-.33,.73-.73,.73h-5.3c-.41,0-.73-.33-.73-.73v-5.79c0-.41,.33-.73,.73-.73Z"/>
  <path class="cls-6" d="M135.41,428.08c-.52-2.42-.9-4.83-1.14-7.24h.16s2.28,0,2.28,0c.4,0,.73,.33,.73,.73v5.79c0,.4-.33,.73-.73,.73h-1.3Z"/>
  <path class="cls-6" d="M171.97,413.17c.04,.23,.07,.47,.07,.72v6.49h12.27c.4,0,.73-.33,.73-.73v-5.79c0-.4-.33-.73-.73-.73h-12.35v.05Z"/>
  <path class="cls-6" d="M151.78,413.2c.04,.22,.06,.45,.06,.69v6.49s12.05,0,12.05,0v-.07s0-6.42,0-6.42c0-.24,.02-.48,.07-.71v-.06s-12.18,0-12.18,0v.08Z"/>
  <path class="cls-6" d="M133.98,413.12v1.96c0,1.77,.08,3.54,.24,5.32l.11-.03h9.34s0-.19,0-.19v-6.29c0-.26,.03-.52,.08-.77h-.09s-9.5,0-9.5,0h-.18Z"/>
  <path class="cls-6" d="M137.54,435.81c-.81-2.42-1.5-4.84-2.04-7.27h.2s7.98,0,7.98,0v.25s0,6.74,0,6.74v.26h-6.14Z"/>
  <path class="cls-6" d="M172.04,435.58v-7.04h12.27c.4,0,.73,.33,.73,.73v5.79c0,.4-.33,.73-.74,.73h-12.26v-.21Z"/>
  <path class="cls-6" d="M179.01,436.25h5.3c.41,0,.73,.33,.73,.73v5.79c0,.41-.33,.73-.73,.73h-5.3c-.4,0-.73-.33-.73-.73v-5.79c0-.41,.33-.73,.73-.73Z"/>
  <path class="cls-6" d="M148.73,443.95h18.27c.41,0,.73,.33,.73,.73v7.96c0,.41-.33,.73-.73,.73h-18.27c-.41,0-.74-.33-.74-.74v-7.96c0-.41,.33-.73,.73-.73Z"/>
  <path class="cls-6" d="M168.92,443.95h15.38c.41,0,.74,.33,.74,.74v7.95c0,.41-.33,.74-.74,.74h-15.39c-.4,0-.73-.33-.73-.73v-7.96c0-.41,.33-.73,.73-.73Z"/>
  <path class="cls-6" d="M140.83,443.97c1.48,3.17,3.19,6.31,5.11,9.4h.24s.63,0,.63,0c.4,0,.73-.33,.73-.73v-7.96c0-.4-.33-.74-.73-.74h-5.76l-.21,.02Z"/>
  <path class="cls-6" d="M140.61,443.51c-1.02-2.21-1.92-4.44-2.72-6.68l.03-.08c.1-.29,.37-.5,.7-.5h18.27c.4,0,.73,.33,.73,.73v5.79c0,.4-.33,.73-.73,.73h-16.14s-.14,.01-.14,.01Z"/>
  <path class="cls-6" d="M158.82,436.25h18.26c.41,0,.73,.33,.73,.73v5.79c0,.41-.33,.73-.73,.73h-18.26c-.41,0-.73-.33-.73-.73v-5.79c0-.41,.33-.73,.73-.73Z"/>
  <path class="cls-6" d="M369.79,311.56c.97,0,1.21-.84,.99-1.3l-17.72-39.12h-.04c-.82,.33-1.72,.51-2.66,.51s-1.83-.18-2.65-.51l-.04-.02-17.8,39.3c-.23,.52-.15,1.14,.87,1.14h.96c.29,0,.61-.22,.72-.48l10.72-26.28c.11-.26,.12-.26,.03,0l-9.05,26.26c-.09,.27,.07,.49,.35,.49h2.95c.29,0,.58-.23,.66-.5l9.11-32.5c.08-.28,.09-.27,.03,0l-7.12,32.49c-.06,.28,.12,.51,.41,.51h3.81c.29,0,.55-.23,.58-.52l3.97-31.61c.04-.28,.05-.28,.03,0l-2.19,31.6c-.02,.29,.2,.52,.48,.52h5.43c.29,0,.51-.23,.5-.52l-1.36-34.08c-.01-.29,0-.29,.02,0l2.93,34.08c.03,.29,.28,.52,.57,.52h4.03c.29,0,.48-.23,.43-.51l-5.32-30.43c-.05-.28-.03-.29,.03,0l7.31,30.44c.07,.28,.36,.51,.64,.51h4.03c.29,0,.44-.22,.35-.49l-9.26-26.59c-.09-.27-.08-.28,.03-.01l11.14,26.61c.11,.26,.36,.48,.55,.48h.51Z"/>
  <path class="cls-4" d="M356.56,264.49c0-3.41-2.78-6.19-6.19-6.19s-6.19,2.78-6.19,6.19,2.78,6.19,6.19,6.19,6.19-2.78,6.19-6.19Z"/>
  <path class="cls-6" d="M354.89,327.08c0,.2,.33,.36,.74,.36h3.87c.4,0,.73-.33,.73-.73v-5.87c0-.4-.33-.74-.74-.74h-18.26c-.4,0-.73,.33-.73,.74v5.87c0,.4,.32,.73,.73,.73h3.88c.4,0,.73-.16,.73-.36v-.53c0-2.08,2.02-3.76,4.52-3.76s4.52,1.68,4.52,3.76c0,0,0,.33,0,.53Z"/>
  <path class="cls-6" d="M350.14,390.82s0-.19,0-.41c0-.23-.33-.41-.73-.41h-18.26c-.4,0-.73,.33-.73,.73v5.79c0,.4,.33,.73,.73,.73h12.34v-.05c.27-3.46,3.1-6.22,6.6-6.37h.06Z"/>
  <path class="cls-6" d="M357.26,397.25h12.33c.4,0,.74-.33,.74-.74v-5.79c0-.4-.33-.73-.74-.73h-18.27c-.4,0-.73,.19-.73,.41v.41h.06c3.49,.15,6.33,2.9,6.6,6.36v.06Z"/>
  <path class="cls-6" d="M350.37,404.18c-3.56,0-6.45-2.89-6.45-6.45s2.89-6.45,6.45-6.45,6.45,2.89,6.45,6.45-2.89,6.45-6.45,6.45Zm0-11.52c-2.8,0-5.07,2.27-5.07,5.08s2.27,5.07,5.07,5.07,5.07-2.27,5.07-5.07-2.27-5.08-5.07-5.08Z"/>
  <path class="cls-6" d="M323.92,405.41h5.3c.4,0,.73,.33,.73,.73v5.79c0,.41-.33,.73-.73,.73h-5.3c-.4,0-.73-.33-.73-.73v-5.79c0-.4,.33-.73,.73-.73Z"/>
  <path class="cls-6" d="M333.4,320.1h5.91c.4,0,.73,.33,.73,.73v5.88c0,.41-.33,.74-.74,.74h-5.9c-.41,0-.73-.33-.73-.73v-5.88c0-.4,.33-.73,.73-.73Z"/>
  <path class="cls-6" d="M367.33,327.44c.4,0,.73-.33,.73-.73v-5.87c0-.4-.33-.73-.73-.74h-5.91c-.4,0-.73,.32-.73,.73v5.87c0,.4,.33,.73,.73,.73h5.91Z"/>
  <path class="cls-6" d="M349.41,319.65c.4,0,.73-.33,.73-.73v-5.65c0-.4-.33-.73-.73-.73h-15.99c-.4,0-.73,.33-.74,.73v5.65c0,.4,.33,.74,.73,.74h16Z"/>
  <path class="cls-6" d="M350.6,318.91c0,.4,.33,.73,.73,.73h16c.4,0,.73-.32,.73-.73v-5.65c0-.4-.33-.73-.73-.73h-16c-.4,0-.73,.33-.73,.73v5.65Z"/>
  <path class="cls-6" d="M368.07,334.51c0,.4-.33,.73-.73,.73h-11.71c-.4,0-.73-.33-.73-.73v-5.84c0-.4,.33-.74,.74-.74h11.71c.4,0,.73,.32,.73,.73v5.85Z"/>
  <path class="cls-6" d="M345.85,334.51c0,.4-.33,.73-.73,.73h-11.71c-.4,0-.73-.33-.73-.73v-5.85c0-.4,.34-.73,.74-.73h11.71c.4,0,.73,.33,.73,.74v5.84Z"/>
  <rect class="cls-6" x="354.89" y="335.69" width="5.35" height="7.34" rx=".73" ry=".73"/>
  <path class="cls-6" d="M332.67,350.1c0,.4,.33,.73,.73,.73h11.71c.4,0,.73-.33,.73-.73v-5.88c0-.4-.33-.73-.73-.73h-11.71c-.4,0-.73,.33-.73,.73v5.88Z"/>
  <path class="cls-6" d="M355.62,343.49h11.71c.41,0,.73,.33,.73,.73v5.87c0,.41-.33,.73-.73,.73h-11.71c-.4,0-.73-.33-.73-.73v-5.88c0-.4,.33-.73,.73-.73Z"/>
  <path class="cls-6" d="M361.43,335.69h5.91c.41,0,.73,.33,.73,.73v5.87c0,.4-.33,.73-.73,.73h-5.91c-.4,0-.73-.33-.73-.73v-5.87c0-.41,.33-.73,.73-.73Z"/>
  <path class="cls-6" d="M341.23,335.69h3.89c.4,0,.73,.33,.73,.73v5.87c0,.41-.33,.74-.74,.74h-3.88c-.41,0-.74-.33-.74-.74v-5.87c0-.41,.33-.73,.73-.73Z"/>
  <path class="cls-6" d="M333.41,335.69h5.91c.41,0,.73,.33,.73,.73v5.88c0,.4-.33,.73-.73,.73h-5.91c-.41,0-.74-.33-.74-.74v-5.87c0-.41,.33-.74,.74-.74Z"/>
  <rect class="cls-6" x="332.67" y="351.29" width="7.38" height="7.34" rx=".73" ry=".73"/>
  <path class="cls-6" d="M345.85,351.29v1.45c0,.29,.23,.52,.52,.52h8c.29,0,.52-.23,.52-.52v-1.45h4.61c.4,0,.73,.33,.73,.73v5.88c0,.4-.33,.73-.73,.73h-18.27c-.4,0-.74-.33-.74-.73v-5.88c0-.4,.33-.73,.73-.73h4.62Z"/>
  <rect class="cls-6" x="332.67" y="359.08" width="17.47" height="7.34" rx=".73" ry=".73"/>
  <path class="cls-6" d="M333.4,366.88h5.92c.41,0,.73,.33,.73,.73v5.87c0,.41-.33,.74-.74,.74h-5.91c-.41,0-.73-.33-.73-.73v-5.88c0-.41,.33-.73,.73-.73Z"/>
  <path class="cls-6" d="M351.33,374.68h16c.4,0,.73,.33,.73,.73v5.16c0,.41-.33,.73-.73,.73h-16c-.41,0-.73-.33-.73-.73v-5.16c0-.4,.33-.73,.73-.73Z"/>
  <rect class="cls-6" x="332.67" y="374.68" width="17.47" height="6.63" rx=".73" ry=".73"/>
  <path class="cls-6" d="M368.07,373.49c0,.4-.33,.73-.73,.73h-5.91c-.4,0-.73-.33-.73-.73v-5.87c0-.4,.33-.74,.73-.74h5.91c.4,0,.73,.33,.73,.74v5.87Z"/>
  <path class="cls-6" d="M341.23,366.88h18.27c.41,0,.74,.33,.74,.74v5.87c0,.41-.33,.74-.74,.74h-18.27c-.4,0-.73-.33-.73-.73v-5.88c0-.4,.33-.73,.73-.73Z"/>
  <path class="cls-6" d="M351.33,359.08h16c.41,0,.73,.33,.73,.73v5.88c0,.41-.33,.73-.73,.73h-16c-.41,0-.73-.33-.73-.73v-5.88c0-.41,.33-.73,.73-.73Z"/>
  <path class="cls-6" d="M361.43,351.29h5.91c.41,0,.73,.33,.73,.73v5.88c0,.41-.33,.73-.73,.73h-5.9c-.41,0-.73-.33-.73-.73v-5.88c0-.4,.33-.73,.73-.73Z"/>
  <path class="cls-6" d="M357.27,397.73c0,3.8-3.1,6.9-6.9,6.9s-6.9-3.1-6.9-6.9v-.03h-2.23c-.4,0-.73,.33-.73,.73v5.79c0,.4,.33,.73,.73,.73h18.27c.4,0,.73-.33,.73-.73v-5.79c0-.4-.33-.73-.73-.73h-2.23v.03Z"/>
  <path class="cls-6" d="M323.92,397.71h15.4c.4,0,.73,.33,.73,.73v5.79c0,.4-.33,.73-.73,.73h-15.39c-.41,0-.74-.33-.74-.74v-5.79c0-.41,.33-.73,.73-.73Z"/>
  <path class="cls-6" d="M336.39,412.67h-5.25c-.4,0-.73-.33-.73-.73v-5.79c0-.4,.33-.73,.73-.73h18.26c.4,0,.73,.33,.73,.73v5.79c0,.4-.33,.73-.73,.73h-5.25l-.02-.05c-.55-1.54-2.07-2.65-3.86-2.65s-3.3,1.1-3.86,2.63l-.02,.07Z"/>
  <path class="cls-6" d="M336.19,420.99v7.09h-5.05c-.4,0-.73-.33-.73-.73v-5.79c0-.4,.33-.73,.74-.73h5.04v.16Z"/>
  <path class="cls-6" d="M341.24,382.28h18.27c.41,0,.73,.33,.73,.73v5.8c0,.41-.33,.73-.73,.73h-18.26c-.41,0-.74-.33-.74-.74v-5.8c0-.4,.33-.73,.73-.73Z"/>
  <path class="cls-6" d="M323.93,382.28h15.39c.41,0,.73,.33,.73,.73v5.8c0,.41-.33,.73-.73,.73h-15.39c-.4,0-.73-.33-.73-.73v-5.8c0-.41,.33-.73,.73-.73Z"/>
  <path class="cls-6" d="M323.92,390h5.3c.4,0,.73,.33,.73,.73v5.79c0,.4-.33,.73-.73,.73h-5.3c-.4,0-.73-.33-.73-.73v-5.79c0-.4,.33-.73,.73-.73Z"/>
  <path class="cls-6" d="M364.55,421v7.08s5.05,0,5.05,0c.4,0,.74-.33,.74-.73v-5.79c0-.4-.33-.73-.74-.73h-5.05v.17Z"/>
  <path class="cls-6" d="M364.32,412.59c-.56-1.53-2.07-2.62-3.85-2.62s-3.32,1.11-3.86,2.66v.04h-5.28c-.4,0-.73-.33-.73-.73v-5.79c0-.4,.33-.73,.73-.73h18.26c.41,0,.74,.33,.74,.73v5.79c0,.4-.33,.73-.73,.73h-5.25l-.02-.08Z"/>
  <polygon class="cls-6" points="356.39 428.73 356.39 435.53 356.39 435.79 344.35 435.79 344.35 435.56 344.35 428.8 344.35 428.54 356.39 428.54 356.39 428.73"/>
  <path class="cls-6" d="M356.39,428.08h-5.06c-.4,0-.73-.33-.73-.73v-5.79c0-.4,.33-.73,.73-.73h5.06v.19s0,6.8,0,6.8v.26Z"/>
  <path class="cls-6" d="M344.35,428.08h5.05c.4,0,.73-.33,.73-.73v-5.79c0-.4-.33-.73-.73-.73h-5.05v.12s0,6.98,0,6.98v.15Z"/>
  <path class="cls-6" d="M323.92,420.83h5.3c.4,0,.73,.33,.73,.73v5.79c0,.4-.33,.73-.73,.73h-5.3c-.41,0-.73-.33-.73-.73v-5.79c0-.41,.33-.73,.73-.73Z"/>
  <path class="cls-6" d="M336.26,413.17c-.04,.23-.07,.47-.07,.72v6.49h-12.27c-.4,0-.73-.33-.73-.73v-5.79c0-.4,.33-.73,.73-.73h12.35v.05Z"/>
  <path class="cls-6" d="M356.45,413.2c-.04,.22-.06,.45-.06,.69v6.49s-12.05,0-12.05,0v-.07s0-6.42,0-6.42c0-.24-.02-.48-.06-.71v-.06s12.18,0,12.18,0v.08Z"/>
  <path class="cls-6" d="M336.19,435.58v-7.04h-12.27c-.4,0-.73,.33-.73,.73v5.79c0,.4,.33,.73,.74,.73h12.26v-.21Z"/>
  <path class="cls-6" d="M323.92,436.25h5.3c.4,0,.73,.33,.73,.73v5.79c0,.41-.33,.73-.73,.73h-5.3c-.4,0-.73-.33-.73-.73v-5.79c0-.41,.33-.73,.73-.73Z"/>
  <path class="cls-6" d="M341.23,443.95h18.27c.4,0,.73,.33,.73,.73v7.96c0,.41-.33,.74-.74,.74h-18.27c-.41,0-.74-.33-.74-.74v-7.95c0-.41,.33-.73,.73-.73Z"/>
  <path class="cls-6" d="M323.92,443.95h15.38c.41,0,.74,.33,.74,.74v7.95c0,.41-.33,.74-.74,.74h-15.39c-.4,0-.73-.33-.73-.73v-7.96c0-.41,.33-.73,.73-.73Z"/>
  <path class="cls-6" d="M331.14,436.25h18.26c.41,0,.74,.33,.74,.74v5.79c0,.41-.33,.73-.73,.73h-18.26c-.41,0-.73-.33-.73-.73v-5.79c0-.4,.33-.73,.73-.73Z"/>
  <rect class="cls-6" x="186.01" y="448.52" width="136.21" height="4.83" rx=".92" ry=".92"/>
  <path class="cls-6" d="M148.71,457.59c2.32,3.34,4.89,6.6,7.69,9.76h.1s195.35,0,195.35,0l.08-.1c2.75-3.12,5.28-6.33,7.56-9.62l-.18-.03c-4.86,0-12.53,0-12.92,0v4.44c0,1.23-1.11,2.19-2.52,2.19h-17.79c-1.41,0-2.52-.96-2.52-2.19v-4.44c-.49,0-16.72,0-17.28,0v4.44c0,1.23-1.11,2.19-2.52,2.19h-17.79c-1.41,0-2.52-.96-2.52-2.19v-4.44c-.49,0-16.72,0-17.28,0v4.44c0,1.23-1.11,2.19-2.52,2.19h-17.79c-1.41,0-2.52-.96-2.52-2.19v-4.44c-.49,0-16.72,0-17.28,0v4.44c0,1.23-1.11,2.19-2.52,2.19h-17.79c-1.41,0-2.52-.96-2.52-2.19v-4.44c-.49,0-16.72,0-17.28,0v4.44c0,1.23-1.11,2.19-2.52,2.19h-17.79c-1.41,0-2.52-.96-2.52-2.19v-4.44h-14.44Z"/>
  <path class="cls-2" d="M146.66,454.51c.33,.52,.67,1.04,1.02,1.56l.08,.14h15.65c.62,0,1.13,.36,1.13,.81v5.02c0,.44,.51,.81,1.13,.81h17.79c.62,0,1.13-.36,1.13-.81v-5.02c0-.44,.51-.81,1.13-.81h17.79c.62,0,1.13,.36,1.13,.81v5.02c0,.44,.51,.81,1.13,.81h17.79c.62,0,1.13-.36,1.13-.81v-5.02c0-.44,.51-.81,1.13-.81h17.79c.62,0,1.13,.36,1.13,.81v5.02c0,.44,.51,.81,1.13,.81h17.79c.62,0,1.13-.36,1.13-.81v-5.02c0-.44,.51-.81,1.13-.81h17.79c.62,0,1.13,.36,1.13,.81v5.02c0,.44,.51,.81,1.13,.81h17.79c.62,0,1.13-.36,1.13-.81v-5.02c0-.44,.51-.81,1.13-.81h17.79c.62,0,1.13,.36,1.13,.81v5.02c0,.44,.51,.81,1.13,.81h17.79c.62,0,1.13-.36,1.13-.81v-5.02c0-.44,.51-.81,1.13-.81h14.32c.39-.57,.77-1.16,1.15-1.74l.05-.12H146.55l.11,.16Z"/>
  <path class="cls-2" d="M192.07,495.18c1.39,.74,2.8,1.46,4.22,2.16,2.27,1.11,4.61,2.14,7.03,3.1l.49,.17,.92,.3c4.83,1.55,12.69,1.55,17.52,0l2.28-.74c5.07-1.63,13.31-1.63,18.37,0l2.28,.73c4.83,1.56,12.69,1.55,17.52,0l2.28-.73c5.07-1.63,13.31-1.63,18.37,0l2.28,.74c4.83,1.55,12.69,1.55,17.52,0l2.28-.73,.57-.17c2.03-.83,4-1.71,5.92-2.65,1.42-.7,2.82-1.41,4.2-2.15l-.19-.02c-3.01-.12-6.19,.18-8.4,.89l-2.28,.73c-6.09,1.96-15.63,1.96-21.73,0l-2.28-.73c-3.77-1.21-10.39-1.21-14.16,0l-2.28,.73c-6.09,1.96-15.63,1.96-21.73,0l-2.29-.73c-3.77-1.21-10.39-1.21-14.16,0l-2.28,.73c-6.09,1.96-15.64,1.96-21.73,0l-2.28-.73c-2.13-.68-5.16-.98-8.08-.89l-.2,.02Z"/>
  <path class="cls-2" d="M170.04,480.49c1.59,1.31,3.23,2.6,4.91,3.85h.15c2.46-.13,4.81-.5,6.7-1.11l2.28-.73c5.07-1.63,13.31-1.63,18.37,0l2.28,.73c4.83,1.55,12.69,1.55,17.52,0l2.28-.73c5.06-1.63,13.31-1.63,18.37,0l2.28,.73c4.83,1.55,12.69,1.55,17.52,0l2.28-.73c5.07-1.63,13.31-1.63,18.37,0l2.28,.73c4.83,1.55,12.69,1.55,17.52,0l2.28-.73c5.07-1.63,13.31-1.63,18.37,0l2.28,.73c1.99,.64,4.49,1.02,7.08,1.13h.08c1.69-1.26,3.33-2.55,4.94-3.87h-.14c-4.9,.34-10.18-.12-14.06-1.37l-2.28-.73c-3.77-1.21-10.39-1.21-14.16,0l-2.28,.73c-6.09,1.96-15.63,1.96-21.73,0l-2.28-.73c-3.77-1.21-10.39-1.21-14.16,0l-2.28,.73c-6.09,1.96-15.63,1.96-21.73,0l-2.29-.73c-3.77-1.21-10.39-1.21-14.16,0l-2.28,.73c-6.09,1.96-15.64,1.96-21.73,0l-2.28-.73c-3.77-1.21-10.39-1.21-14.16,0l-2.28,.73c-3.78,1.22-8.89,1.68-13.68,1.38l-.18-.02Z"/>
  <path class="cls-2" d="M157.64,468.74c1.58,1.73,3.23,3.43,4.95,5.09l.16,.06,1.53,.49c4.83,1.55,12.69,1.55,17.52,0l2.28-.74c5.06-1.63,13.3-1.63,18.37,0l2.29,.74c4.83,1.55,12.69,1.55,17.52,0l2.28-.74c5.06-1.63,13.3-1.63,18.37,0l2.28,.74c4.83,1.55,12.69,1.55,17.52,0l2.28-.74c5.07-1.63,13.31-1.63,18.37,0l2.28,.74c4.83,1.55,12.69,1.55,17.52,0l2.28-.74c5.07-1.63,13.31-1.63,18.37,0l2.28,.74c4.83,1.55,12.69,1.55,17.52,0l2.07-.66,.1-.03c1.64-1.59,3.22-3.22,4.73-4.87l.1-.08H157.64Z"/>
  <path class="cls-3" d="M164.9,476.01c1.08,.99,2.17,1.96,3.29,2.92l.17,.03c5.13,.56,10.96,.18,15.12-1.16l2.28-.73c4-1.29,11.01-1.29,15.01,0l2.28,.74c5.85,1.88,15.02,1.88,20.88,0l2.28-.74c4-1.29,11.01-1.29,15.01,0l2.28,.74c5.85,1.88,15.02,1.88,20.88,0l2.28-.73c4-1.29,11.01-1.29,15.01,0l2.28,.74c5.86,1.88,15.03,1.88,20.88,0l2.28-.73c4-1.29,11.01-1.29,15.01,0l2.28,.74c4.28,1.38,10.33,1.75,15.57,1.11h.09c1.15-1,2.28-2,3.39-3.02l-.16,.04c-5.1,1.4-12.8,1.33-17.63-.22l-2.28-.73c-4.83-1.55-12.69-1.55-17.52,0l-2.28,.73c-5.06,1.63-13.3,1.63-18.37,0l-2.28-.73c-4.83-1.55-12.69-1.55-17.52,0l-2.28,.73c-5.06,1.63-13.3,1.63-18.37,0l-2.28-.73c-4.83-1.55-12.69-1.55-17.52,0l-2.28,.73c-5.07,1.63-13.31,1.63-18.37,0l-2.29-.73c-4.83-1.55-12.69-1.55-17.52,0l-2.28,.73c-4.67,1.5-12.04,1.62-17.13,.35l-.2-.05Z"/>
  <path class="cls-3" d="M176.69,485.61c.92,.67,1.86,1.32,2.81,1.97l.09-.03c1.4-.23,2.71-.53,3.89-.91l2.28-.73c4-1.29,11.01-1.29,15.01,0l2.28,.73c5.85,1.88,15.02,1.88,20.88,0l2.28-.73c4-1.29,11.01-1.29,15.01,0l2.29,.73c5.85,1.88,15.02,1.88,20.88,0l2.28-.73c4-1.29,11.01-1.29,15.01,0l2.28,.73c5.86,1.88,15.03,1.88,20.88,0l2.28-.73c4-1.29,11.01-1.29,15.01,0l2.28,.73c1.26,.41,2.67,.72,4.17,.95l.1,.02c.95-.65,1.89-1.31,2.82-1.97l-.19-.03c-2.07-.19-4.02-.54-5.65-1.06l-2.28-.73c-4.83-1.55-12.69-1.55-17.52,0l-2.28,.73c-5.06,1.63-13.3,1.63-18.37,0l-2.28-.73c-4.83-1.55-12.69-1.55-17.52,0l-2.28,.73c-5.06,1.63-13.3,1.63-18.37,0l-2.28-.73c-4.83-1.55-12.69-1.55-17.52,0l-2.28,.73c-5.06,1.63-13.3,1.63-18.37,0l-2.29-.73c-4.83-1.55-12.69-1.55-17.52,0l-2.28,.73c-1.54,.5-3.38,.84-5.33,1.03l-.21,.03Z"/>
  <path class="cls-2" d="M181.13,488.67c1.24,.82,2.5,1.62,3.78,2.41l.16-.04c5.1-1.34,12.64-1.24,17.38,.29l2.29,.73c4.83,1.55,12.69,1.55,17.52,0l2.28-.74c5.06-1.63,13.31-1.63,18.37,0l2.28,.73c4.83,1.55,12.69,1.55,17.52,0l2.28-.73c5.07-1.63,13.31-1.63,18.37,0l2.28,.74c4.83,1.55,12.69,1.55,17.52,0l2.28-.73c4.84-1.56,12.58-1.63,17.68-.21l.08,.03c1.29-.79,2.57-1.6,3.83-2.43l-.15-.03c-1.02-.2-1.99-.45-2.88-.74l-2.28-.73c-3.77-1.21-10.39-1.21-14.16,0l-2.28,.73c-6.09,1.96-15.63,1.96-21.73,0l-2.28-.73c-3.77-1.21-10.39-1.21-14.16,0l-2.28,.73c-6.09,1.96-15.63,1.96-21.73,0l-2.29-.73c-3.77-1.21-10.39-1.21-14.16,0l-2.28,.73c-6.09,1.96-15.64,1.96-21.73,0l-2.28-.73c-3.77-1.21-10.39-1.21-14.16,0l-2.28,.73c-.82,.26-1.69,.49-2.62,.68l-.15,.04Z"/>
  <path class="cls-3" d="M186.61,492.11c1.05,.62,2.12,1.24,3.19,1.84h.13c3.71-.38,8.03-.11,10.85,.8l2.28,.73c5.85,1.88,15.02,1.88,20.88,0l2.28-.73c4-1.29,11.01-1.29,15.01,0l2.29,.73c5.85,1.88,15.02,1.88,20.88,0l2.28-.73c4-1.29,11.01-1.29,15.01,0l2.28,.73c5.85,1.88,15.03,1.88,20.88,0l2.28-.73c2.89-.93,7.35-1.19,11.12-.77l.09,.03c1.08-.6,2.14-1.21,3.2-1.84l-.16-.04c-4.8-1-11.3-.83-15.5,.53l-2.28,.73c-5.06,1.63-13.3,1.63-18.37,0l-2.28-.74c-4.83-1.55-12.69-1.55-17.52,0l-2.28,.73c-5.06,1.63-13.3,1.63-18.37,0l-2.28-.73c-4.83-1.55-12.69-1.55-17.52,0l-2.28,.74c-5.06,1.63-13.31,1.63-18.37,0l-2.29-.73c-4.12-1.33-10.46-1.52-15.23-.58l-.19,.04Z"/>
  <path class="cls-3" d="M211.96,503.41c2.39,.71,4.83,1.35,7.34,1.92,0,0,.11-.03,.2-.02,1.6-.23,3.1-.56,4.44-.99l2.28-.74c4-1.29,11.01-1.29,15.01,0l2.28,.74c5.85,1.88,15.02,1.88,20.87,0l2.28-.73c4-1.29,11.01-1.29,15.01,0l2.28,.74c1.41,.46,3.02,.8,4.73,1.04h.09c2.55-.57,5.04-1.22,7.47-1.94h-.25c-3.83,.15-7.84-.25-10.78-1.19l-2.28-.73c-4.83-1.55-12.69-1.55-17.52,0l-2.28,.73c-5.06,1.63-13.3,1.63-18.37,0l-2.28-.73c-4.83-1.55-12.69-1.55-17.52,0l-2.28,.73c-2.83,.91-6.64,1.31-10.33,1.21l-.39-.02Z"/>
  <path class="cls-2" d="M222.77,506.08c9.62,1.92,20.09,2.88,31.34,2.88s21.56-.95,31.11-2.84l-.18-.06c-.52-.13-1.02-.27-1.5-.43l-2.28-.73c-3.77-1.21-10.39-1.21-14.16,0l-2.28,.73c-6.09,1.96-15.63,1.96-21.73,0l-2.29-.73c-3.77-1.21-10.39-1.21-14.16,0l-2.28,.74c-.42,.14-.87,.26-1.32,.38-.05,.03-.26,.06-.26,.06Z"/>
  <path class="cls-6" d="M374.25,389.54v-7.25h-.16s-12.67,0-12.67,0c-.4,0-.73,.33-.73,.73v5.8c0,.4,.33,.74,.73,.74h12.83Z"/>
  <path class="cls-6" d="M374.25,397.25v-7.24l-.29-.02h-2.45c-.4,0-.73,.33-.73,.73v5.79c0,.41,.33,.74,.74,.74h2.73Z"/>
  <path class="cls-6" d="M374.25,404.95v-7.23h-.2s-12.63-.01-12.63-.01c-.4,0-.73,.33-.73,.73v5.79c0,.4,.33,.73,.73,.73h12.59s.24-.01,.24-.01Z"/>
  <path class="cls-6" d="M374.25,412.67v-7.24h-.11s-2.62-.01-2.62-.01c-.4,0-.73,.33-.73,.73v5.79c0,.4,.33,.73,.73,.73h2.54s.2,0,.2,0Z"/>
  <path class="cls-6" d="M374.01,420.38c.16-1.77,.24-3.54,.24-5.3v-1.94l-.24-.02h-9.45s-.09,0-.09,0c.05,.25,.08,.5,.08,.77v6.49s9.27,0,9.27,0h.2Z"/>
  <path class="cls-6" d="M372.83,428.1c.52-2.42,.9-4.84,1.14-7.26h-.31s-2.14,0-2.14,0c-.4,0-.73,.33-.73,.73v5.79c0,.4,.33,.73,.73,.73h.99l.31,.02Z"/>
  <path class="cls-6" d="M370.7,435.77c.81-2.4,1.48-4.8,2.02-7.21l-.21-.02h-7.97v.25s0,6.74,0,6.74v.26s5.99,0,5.99,0l.16-.02Z"/>
  <path class="cls-6" d="M370.28,436.7c-.11-.26-.37-.45-.68-.45h-18.27c-.4,0-.73,.33-.73,.73v5.79c0,.4,.33,.73,.73,.73h16.15s.14,0,.14,0c1.01-2.2,1.91-4.42,2.7-6.65l-.05-.16Z"/>
  <path class="cls-6" d="M367.25,443.95h-5.82c-.4,0-.73,.33-.73,.74v7.96c0,.4,.33,.73,.73,.73h.87c1.92-3.09,3.64-6.24,5.12-9.42h-.17Z"/>
  <path class="cls-2" d="M231.98,367.7c-.52-.63-.96-1.51-1.19-2.75l-.02-.07c-.62,.56-2.09,1.85-3.36,2.63-1.67,1.02-3.07-.19-4.64-1.29-2.91-2.05-3.78-2.54-3.78-2.54,0,0-.54,.33-.97,1.89-.43,1.57-.92,3.35-.92,3.35,0,0,.54,.32,.7,.92,.16,.59,.16,.81,.16,.81,0,0,.97-.43,2.48-.81,1.51-.38,2.7,.05,3.61,.97,0,0,.97-.27,2.27-.27,.72,0,1.47,.1,2,.19,.42,.07,.77,0,1.03-.31,.33-.39,.95-1.06,2.1-2.09,.21-.19,.4-.37,.6-.55l-.07-.08Z"/>
  <path class="cls-2" d="M235.8,433.38c.59,.63,1.39,1.36,2.21,1.69,1.62,.65,4.21,1.29,4.13-1.13-.03-.97-.83-8.97-1.79-18.25l-.03,.12c-.49,2.04-1.41,5.05-2.33,6.8-.79,1.5-1.17,3.49-1.47,5.61v.12c.93,.82,1.42,1.22,1.42,1.22,0,0-.83,.6-1.77,1.42l-.03,.04c-.19,1.33-.31,2.01-.37,2.31l.04,.05Z"/>
  <path class="cls-2" d="M186.01,434.11v13.47h40.36l-.11-.05c-1.56-.76-1.96-2.43-2.05-3.03-.02-.14-.22-.15-.32-.12-1.34,.44-2.72,.87-3.85,.97-1.78,.16-2.51,.16-4.05,.89-1.54,.73-3.16,.16-4.77-.49-1.62-.65-1.86,0-3.08,.89-1.21,.89-2.1,.4-3.08-.49-.97-.89-1.7-.81-2.91-.32-1.21,.49-2.75,.08-3.96-.49-1.21-.57-1.78-.24-3.4,.16-1.62,.4-2.75,.16-3.32-.81-.57-.97-1.29-.73-2.43-.65-1.13,.08-1.62-1.62-1.86-4.21-.16-1.74-.74-3.43-1.17-5.89v.16Z"/>
  <path class="cls-2" d="M260.75,447.48c-.22-1.49-.24-4.06,.65-8.29,.45-2.16,1.26-6.92,2.21-12.75h-.11c-.62-.05-1.3-.08-1.78-.04,0,0,.08,5.1-4.61,10.68-3.5,4.16-6.68,8.5-8.08,10.44l-.04,.05h11.77v-.1Z"/>
  <path class="cls-2" d="M237.65,389.78c-.33-3.11-.53-5.06-.53-5.06,0,0-2.54,.2-5.81,.33l.02,.09c.06,.48,.12,.87,.17,1.1,.22,.92,1.57,1.19,3.02,1.89,1.12,.54,2.33,1.04,3.05,1.59l.07,.07Z"/>
  <path class="cls-2" d="M322.16,436.89c-.18,.25-.46,.52-.87,.76-1.13,.65-1.62,2.64-2.7,3.13-1.08,.49-1.51,.65-1.51,1.94,0,1.21,.76,3.9,.05,4.85h.11s4.98,0,4.98,0v-10.77l-.05,.08Z"/>
  <path class="cls-2" d="M322.22,373.3v-23.49c.02-19.89-8.21-38.2-27.21-40.57-7.19-.9-13.29,.11-13.29,.11,.13-1.09,.2-2.21,.2-3.33,0-15.33-12.47-27.81-27.81-27.81h0c-15.33,0-27.81,12.47-27.81,27.81,0,1.13,.07,2.24,.2,3.33,0,0-6.1-1-13.29-.11-18.99,2.37-27.23,20.68-27.21,40.57v26.29c.52-3.22,2.1-6.31,2.5-7.84,.49-1.89,1.19-4.15,1.02-6.8-.16-2.64,.38-5.5,1.08-8.31,.7-2.81,1.94-5.77,3.45-8.31,1.51-2.54,4.48-5.94,5.13-6.26,.65-.32,1.13-.54,1.13-1.67s-.75-1.13-1.29-1.13-1.13-1.08-1.4-1.67c-.27-.59-.16-2.16,.32-3.18,.48-1.02,.65-2.59,.76-3.99,.11-1.4,.86-2.37,1.19-3.99,.32-1.62,.7-2.91,1.67-4.91,.97-2,3.18-3.72,5.29-4.48,2.1-.75,4.42-.54,6.64-.54s4.1,.65,5.07,1.46c.97,.81,1.35,1.89,1.35,2.97,0,.7,.38,1.62,0,2.05-.38,.43-.22,1.56-.05,2.54,.16,.97-.11,2.43-.22,2.86-.11,.43,.54,1.13,.7,2.8,.11,1.12,1.39,2.61-.92,2.32-.86-.11-.81,.59-.97,1.19-.16,.59,.13,.71,0,1.35-.19,.92-1.04,.78-.65,2.05,.27,.88,1.19,2.32-1.19,2.37-2.37,.05-3.62,.65-4.37,1.78-.75,1.13,.54,1.78,1.24,2.64,.7,.86,2.37,2.21,3.51,3.29,1.13,1.08,1.56,3.45,2.37,5.45,.81,2,1.73,3.29,2.86,4.42,1.13,1.13,1.73,1.78,3.07,.75,1.35-1.03,3.62-3.72,5.13-5.66,1.51-1.94,2.16-3.67,3.02-4.05,.86-.38,1.62-.86,2.59-3.08,.97-2.21,1.03-4.05,2.64-5.13,1.62-1.08,3.68-2.25,5.34-2.48,2.37-.32,4.05-.43,4.69-.16,.65,.27,1.13,.92,.81,1.46l-.32,.54s1.02,.16,1.67,.43c.65,.27,1.08,1.29,.76,2.05-.32,.76-.65,2.48-1.57,3.34-.92,.86-2.1,1.62-3.02,1.89-.92,.27-1.62,2.05-3.13,3.34-1.51,1.29-3.18,1.83-3.94,3.35-.75,1.51-.59,1.83-.7,2.37-.1,.52-.96,1.95-2.24,4.04h.05c2.41,.32,4.79,2.02,5.21,5.22,.09,.72,.07,1.38-.02,1.98l-.02,.07c.44,.04,.77,.18,.89,.53,.24,.73,.77,.04,1.15,1.43,.24,.89-.81,1.46-1.13,1.78-.32,.32,.27,1.46-.16,2.27-.43,.81,.22,1.94-.54,2.91-.35,.45-.91,.71-1.54,.88l-.05,.02,.29,2.53s4.37-.49,8.58-.57c4.21-.08,5.66,0,5.75,1.94,.08,1.94-.24,2.35-5.75,3.4-5.5,1.05-7.2,1.78-7.2,1.78l6.56,48.48c.24,1.54,1.29,2.02,2.83,2.02s2.59-1.78,4.05-3.97c1.46-2.18,1.94-4.37,1.94-4.37,0,0-1.7,.4-3.24,.81,0,0,1.29-3.32,2.35-7.12,1.05-3.8,1.05-7.12,1.05-7.12,0,0,2.99,2.02,4.94,5.26,.62,1.03,1.05,2.29,1.36,3.54l.03,.16c2.48-15.53,5.4-34.94,5.4-34.94,0,0-.73,.08-3.64,0-2.91-.08-4.29-.16-4.21-3.16,.08-2.99,.32-2.99,3.48-2.27,1.72,.4,3.1,.53,4.01,.57h.1c-.31-.22-.5-.45-1.03-.76-.92-.54-.59-1.19-.43-1.83,.16-.65,0-1.08-.16-1.62-.16-.54,.22-1.78,.81-2.05,.59-.27,.22-1.46,.54-1.94,.2-.3,.78-.48,1.18-.57,.25-.06,.5-.31,.67-.58,.17-.28,.44-.6,.84-.79,.06-.03,.12-.05,.18-.08v-.07c0-1.01-.08-1.82-.16-2.34-.02-.13-.02-.27,0-.41l.02-.08c-.6-.6-1.92-1.96-3.12-3.56-1.62-2.16-2.86-4.91-3.88-7.93-.93-2.73-1.62-4.75-1.73-5.77-.11-1.02-1.02-2.81-2.1-3.78-1.08-.97-3.4-3.94-4.91-5.56-1.51-1.62-2.48-3.45-2.21-4.32,.27-.86,1.19-.49,1.19-.49,0,0-1.67-1.67-.54-2.81,.73-.73,1.62,.32,1.62,.32,0,0-1.14-2.64,.16-3.02,1.29-.38,2.7,1.89,2.7,1.89,0,0-.92-1.78,.49-2.21,.51-.16,1.13,.11,2.05,1.29,.92,1.19,3.24,3.67,4.26,4.59,1.03,.92,1.78-.59,2.16-2.43,.38-1.83,1.08-1.89,1.67-1.83,.59,.05,.65,.65,.65,2.43s.11,4.04,.43,5.93c.32,1.89-.16,3.89,.05,4.59,.22,.7,1.57,2.7,2.16,4.48,.59,1.78,1.73,3.29,2.43,4.86,.7,1.56,2.43,2.32,3.34,2.32s1.67-1.73,1.78-3.62c.11-1.89,1.08-3.99,2.1-5.45,1.03-1.46,1.78-3.24,2.8-4.21,1.03-.97,1.46-1.73,2.65-2.86,1.19-1.13,2.75-2.64,3.88-3.02s1.29-.76,1.29-1.78-.81-1.08-2.7-.92c-1.89,.16-1.89-2.05-1.84-3.13,.05-1.08-.59-.86-.54-1.51,.05-.65-.11-1.03-.86-.81-.76,.21-1.57-.11-1.19-.92,.38-.81,.54-2.38,.92-3.02,.38-.65,.7-.97,.32-1.4-.38-.43-.59-2.21-.63-3.01-.01-.3,0-.54-.02-.66-.07-.31-.43-.62-.54-.92-.27-.75,.05-1.78,.05-2.37,0-1.36,.87-2.59,2.37-3.94,1.51-1.35,3.83-1.9,5.83-1.94,2.27-.05,5.13-.16,7.39,1.78,2.27,1.94,2.86,3.08,2.86,4.37s.38,1.83,.86,3.08c.49,1.24,1.13,2.32,2.11,3.4,.97,1.08,1.94,1.24,2.21,2.21,.27,.97,.54,2.16,.43,3.24-.11,1.08-.43,2-1.67,2.21-1.24,.22-2.54,.27-3.24,.75-.7,.49-.7,.97,.21,1.78,.92,.81,1.94,1.3,2.32,2.32,.38,1.02,1.3,2.21,2.21,3.18,.92,.97,3.18,2.75,5.5,5.02,2.32,2.27,2.1,4.75,3.24,6.85,1.13,2.1,.32,4.8,.48,6.96,.16,2.16,1.35,4.26,1.4,5.56,.05,1.3-.11,3.02,.49,4.7,.36,1.01,.64,2.54,.83,4.06v-.21Z"/>
  <path class="cls-2" d="M300.95,447.59c-.18-.1-.33-.21-.43-.33-.81-.97,0-2.21,1.78-2.27,1.78-.05,3.24-1.13,3.88-2.05,.65-.92,.59-1.19-.7-1.29-1.29-.11-3.34-1.67-4.69-3.02-1.35-1.35-2.48-2.32-3.29-1.13-.81,1.18-1.51,1.18-2.27,.43-.75-.76-1.29-.59-1.51,.48-.22,1.08-1.29,1.29-2.05,1.4-.76,.11-1.46,.84-3.02,.97-2.54,.21-2.64,.11-4.21,.59-1.56,.48-1.29,.81-1.29,2.16,0,1.25-.09,3.67-2.14,4.01l-.17,.04h20.11Z"/>
  <path class="cls-2" d="M267.77,447.55c-.08-.02-.16-.05-.22-.07-1.73-.7-3.08-3.13-1.08-3.34,2-.22,3.99-.97,5.18-2.32,1.19-1.35,1.89-2.97,1.94-3.83,.06-.86,.81-2.54,.7-4.96-.11-2.43-.7-4.15-1.08-6.37-.38-2.21-.76-5.13-1.24-9.77-.31-3-.47-6.09-.54-7.9v-.18c-2.46,14-5.35,30.31-6.15,33.95-.47,2.16-1.33,3.71-2.12,4.75l-.06,.08h4.81l-.13-.03Z"/>
  <path class="cls-2" d="M274.19,393.16c.64-.4,2.48-1.57,3.5-2.45,.91-.79,1.87-1.78,2.33-2.26l.04-.05c-.17-.06-.35-.13-.53-.2-2.27-.89-4.37-.89-4.37-.89,0,0-.39,2.26-1.02,5.88l.06-.03Z"/>
  <path class="cls-2" d="M226.66,443.45c1.44-.65,2.18-1.55,4.14-2.8,1.4-.89,2.43-1.65,3.13-1.65s1.13,.59,1.89,1.51c.75,.92,1.24,1.35,3.45,2.27,2.21,.92,3.18,1.4,3.83,1.94,.65,.54,.27,1.35-.97,1.83-1.24,.48-3.29,.38-6.75,.38s-7.72,.21-8.36-.21c-.65-.43-2-2.54-.37-3.27Z"/>
  <path class="cls-3" d="M237.07,384.08s-4.08,.32-8.46,.4l-2.97,.17c-3.05,.24-3.84,.16-3.99-1.05-.26-2.08-.29-2.3,2.61-2.76,2.47-.39,8.67-1.62,11.01-2.09,1.95-.36,5.26-.85,7.48-1.05,1.64-.15,4.36-.36,7-.41,4.59-.09,5.04,.15,5.09,1.32,.06,1.43,.07,1.73-5.22,2.74-3.08,.59-4.99,1.08-6.08,1.4-2.13,.58-5.29,1.23-6.47,1.34Z"/>
  <path class="cls-3" d="M263.72,425.8c-.69-.05-1.48-.08-2.04-.04l-.61,.04s0,.61,0,.61c0,.16-.05,5-4.46,10.25-3.8,4.52-7.26,9.3-8.43,10.94-1.34-1.2-5-4.4-7.81-6.14l-.5-.31c-3.14-1.94-5.62-3.47-8.47-7.22l-.26-.34-.41,.1s-.9,.26-2.1,1.02c-.61-.7-1.97-2.69-2.2-6.82-.03-.59-.05-1.19-.05-1.78,0-3.06,.39-6.12,.7-8.12,.9,2,2.5,4.99,4.82,7.1,2.47,2.25,4.15,3.71,4.99,4.43-.65,.51-1.67,1.36-2.52,2.25l-.36,.38,.3,.43c.07,.1,1.67,2.35,3.45,3.06,1.91,.77,3.32,.84,4.18,.24,.4-.28,.87-.86,.84-2-.08-2.42-4.82-47.34-5.02-49.25,0,0,2.23-.31,4.15-.71l6.54,48.37c.27,1.72,1.44,2.58,3.47,2.58,1.77,0,2.87-1.66,4.26-3.77l.32-.49c1.51-2.26,2.02-4.5,2.04-4.59l.23-1.02s-2.11,.53-3.06,.77c.47-1.31,1.26-3.57,1.94-6.02,.68-2.46,.93-4.68,1.02-6.02,1.01,.84,2.61,2.35,3.79,4.32,.87,1.44,1.36,3.4,1.64,5.07,0,0-.1,.73-.22,1.48-.12,.76-.17,1.16-.17,1.16Z"/>
  <path class="cls-3" d="M272.19,386.79c1.35,.2,2.33,.42,2.33,.42-.08,.49-8.43,48.86-9.87,55.41-.52,2.37-1.53,3.95-2.35,4.92l-.04,.05h-.84v-.07c-.09-.49-.15-1.13-.15-1.97,0-1.46,.18-3.47,.76-6.22,.47-2.24,1.33-7.31,2.33-13.47l.05-.3c2.57-15.86,6-38.64,6.05-38.96,0,0,.38-.02,1.73,.19Z"/>
  <path class="cls-3" d="M272.8,371.18c-.01-1.1-.11-1.89-.16-2.25-.04-.3,.08-.61,.35-.87,.54-.53,1.56-.71,2.79-.5,1.45,.25,2.26,.62,2.62,1.2,.35,.56,.33,1.47-.05,2.75-.11,.36-.23,.77-.36,1.22v.07c-.91-.63-1.79-1.12-2.4-1.39-.79-.35-1.91-.34-2.78-.15v-.07Z"/>
  <path class="cls-3" d="M230.21,364.37c-.69,.66-1.78,1.65-2.81,2.38-1.67,1.19-3.08-.27-5.13-1.78-2.05-1.51-2.54-2.27-2.54-3.24s-.22-3.4-.22-5.83,.81-2.43,1.46-1.51c.65,.92,1.19,1.29,.75,2-.43,.7,.05,.97,.49,.54,.43-.43,.97-.21,1.03,.59,.05,.81-.43,1.78-.11,1.89,.32,.11,.59-.54,.81-1.35,.21-.81,.97-1.51,1.67-1.94,.7-.43,2.59-2.54,4.8-5.23,1.11-1.35,1.71-2.36,2.09-3.04,.38-.68,.52-.61,.48,.07-.04,.71,.08,1.68,.77,2.64,1.35,1.89,2.64,2.86,3.67,2.97,1.03,.11,.27,1.19-.59,2.54-.46,.72-.72,1.18-.87,1.45h-.08c-3.19,.19-5.58,2.03-5.26,6.32,0,.04,0,.07,0,.11,0,0-.3,.28-.44,.42Z"/>
  <path class="cls-3" d="M232.52,367.32c-.6-.71-1.1-1.82-1.23-3.53-.13-1.77,.22-3.15,1.05-4.1,.79-.9,2.03-1.42,3.6-1.51,2.52-.15,5.29,1.42,5.71,4.7,.09,.7,.07,1.34-.04,1.91l-.02,.06c-.33,.02-.67,.08-1,.12-.25,.04-.54,.06-.86,.07l.02-.05c.24-.48,.33-1.06,.26-1.71-.2-1.89-1.71-3.19-3.59-3.09-.96,.05-1.85,.48-2.44,1.18-.53,.63-.77,1.42-.68,2.22,.1,.84,.44,1.6,.95,2.15l-.06,.04c-.5,.4-1.04,.92-1.64,1.5l-.04,.03Z"/>
  <path class="cls-3" d="M236.45,375.29l.25,2.44s.5-.12,1.83-.28c1.32-.16,2-.21,2-.21l-.28-2.45h-.09c-.5,.09-1,.13-1.42,.17-.85,.08-1.57,.18-2.23,.31l-.06,.02Z"/>
  <path class="cls-4" d="M198.43,333.74c-.23-.69,.11-2.05,.54-3.18,.43-1.13,.65-2.21,.7-3.56,.05-1.35,.81-2.43,1.19-4.37,.38-1.94,1.24-3.24,2-4.53,.75-1.29,1.67-2.16,2.86-2.75,1.19-.6,2.59-1.24,3.99-1.19,1.4,.06,3.62,0,5.56,.16,1.94,.16,3.05,.91,3.34,2.16,.27,1.13,.49,1.78-.54,1.51-1.03-.27-1.73-.22-2.59,.11-.86,.32-2.7,.54-2.97,1.3-.27,.75-.21,.81-1.24,1.62-1.03,.81-1.4,1.89-1.51,2.91-.11,1.03-1.4,1.29-1.57,2.59-.16,1.3-.48,1.62-.65,3.08-.16,1.46-.05,3.18-.65,3.78-.59,.59-2.16,.32-2.81,.05-.65-.27-.92-1.29-.22-2.05,.7-.75,.92-2.1,.81-2.81-.11-.7-.27,1.13-.76,1.84-.49,.7-1.24,1.46-1.24,2.16s-.43,1.02-.97,1.19c-.54,.16-1.62-.16-.92-1.56,.7-1.4,1.29-2.21,1.24-3.67-.05-1.46-.27-1.03-.38,.05-.11,1.08-.65,2.37-1.08,3.08-.43,.7-.92,1.19-.54,1.94,.38,.76,.16,1.35-.22,1.35s-1.13-.38-1.4-1.19Z"/>
  <path class="cls-2" d="M218.59,319.74c.24,.5,.49,1.38,.57,2.39,.08,1.01-.16,1.74-.93,1.17-.77-.57-1.78-1.26-3.2-.49-1.42,.77-2.27,1.26-2.06,1.38,.2,.12,1.09-.61,2.14-.89,1.05-.28,2.35,.08,2.67,.52,.32,.45-.12,.45-1.05,.49-.93,.04-1.66,.12-2.47,.53s.61,1.25,1.66,1.33c1.05,.08,1.38-.32,1.42-.73,.04-.4,.28-.49,.65-.53,.36-.04,.49,.65,1.01,1.17,.53,.53,.53,1.74,.69,2.23,.16,.48-.2,.57-.89,.61-.69,.04-1.21-.08-1.62-.28-.41-.2-.65,.24-.08,.57,.57,.32,.65,.85,.57,1.66-.08,.81-.08,1.21-1.01,1.17-.93-.04-1.54,.28-1.54,.44s.65,.49,1.38,.57c.73,.08,.24,.97,.57,1.7,.32,.73,.16,1.13-1.7,1.29-1.86,.16-4.61-.12-5.22-.53-.61-.41-1.94-1.34-1.74-3.97,.2-2.63,.24-3.24,.53-4.33,.28-1.09,1.17-1.74,1.54-3.16,.37-1.42,.73-2.23,1.66-3,.93-.77,.85-1.66,2.15-2.02,1.29-.36,3.48-1.05,4.33,.69Z"/>
  <path class="cls-2" d="M208.25,340.37c0-1.46-.65-2.81-.97-4.05-.32-1.24,.38-1.51,.97-1.08,.59,.43,1.36,1.25,2.21,1.73,.87,.49,.87,1.24,.59,2.21-.27,.97-.27,1.67,1.03,2.7,1.29,1.02,1.51,1.89-.16,2.37-1.67,.49-4.42,.38-6.26-.16-1.84-.54-4.53-2.05-5.24-2.81-.7-.75-.81-1.29-.05-2.1,.76-.81,1.03-2.16,1.03-2.86s.49-.65,.97-1.19c.48-.54,1.02-.76,2.26-.32,1.24,.43,1.57,.54,2.21,1.94,.65,1.4,1.19,2.7,.97,3.78s.43,1.19,.43-.16Z"/>
  <path class="cls-3" d="M203.38,345.62c.83,1.11,1.94,2.96,3.79,5.74,1.85,2.77,2.87,3.98,2.59,6.94-.28,2.96-1.11,1.48-2.41-.46-1.29-1.94-2.13-3.33-2.5-4.72-.37-1.39-1.02-2.5-1.2-1.2-.19,1.29-.56,2.31,.46,3.24,1.02,.92,2.5,3.05,3.61,4.81,1.11,1.76,2.13,2.78,3.24,3.7,1.11,.92,.93,2.22,2.31,2.31,1.39,.09,0,2.68,1.11,2.59,1.11-.09,1.76,.09,2.31,1.02,.55,.92,0,.83-.74,1.29-.74,.46-3.24,3.33-4.9,5.18-1.66,1.85-3.33,6.84-4.07,9.06-.74,2.22-.74,4.9-1.39,6.94-.65,2.03-.92,4.62-1.48,7.49-.56,2.87-1.02,5.18-1.11,7.58-.09,2.4-1.2,5.27-1.48,7.68-.28,2.41-.74,4.53-1.39,7.4-.56,2.48-1.2,4.07-2.04,5.55-.83,1.48-.18,4.07,.09,2.31,.15-.93,.48-1.56,.76-1.93,.24-.33,.52-.11,.61,.56,.16,1.13,.35,3.12,.3,5.63-.09,3.98,.74,6.47,.65,8.79-.09,2.31-.83,1.94-2.5,1.48-1.66-.46-2.87,0-4.26,.28-1.39,.28-1.57-.93-1.57-2.78s.28-2.96,1.48-5.09c1.2-2.13,1.39-4.9,1.3-7.86-.09-2.96,.18-8.69-.37-11.1-.55-2.41-.83-4.25,0-6.84,.83-2.59,.65-11.1,.74-15.54,.09-4.44,.09-9.71,.65-12.49,.55-2.78,.18-9.25-.09-12.58-.28-3.33,.09-7.58,.09-11.29s.18-7.31-.46-6.57c-.65,.74-1.02,2.59-1.02,4.9s.28,6.94-.37,10.54c-.65,3.61,.83,5.55,.65,10.92-.19,5.36-.93,5.36-.93,7.95s0,12.95-.37,19.89c-.37,6.94-2.22,5.09-2.22,7.77s-.65,3.61-.83,6.57c-.19,2.96-3.31,6.47-3.49,4.72-.19-1.76-.42-7.15-.32-12.14,.09-5,.05-11.33,.32-15.86,.28-4.53-.19-8.53,0-11.49,.18-2.96,.6-5.46,.32-8.42-.28-2.96,2.61-7.49,3.26-9.9,.65-2.4,.62-4.78,.57-8.55-.05-3.78,.22-6.04,1.83-9.87,1.62-3.83,2.37-4.8,3.99-6.85,1.71-2.17,1.95-1.53,3.34-.11,.77,.79,2.28,1.71,3.11,2.82Zm-1.31,7.86c.8-.4-1.3-2.19-2.67-3.8-1.38-1.62-3.72-2.51-1.78-.49,1.94,2.02,4.13,4.45,4.45,4.29Zm.73-3.72c.87-.87-2.27-3.08-3.56-4.05-1.3-.97-2.02-.49-.89,.32,1.13,.81,4.21,3.96,4.45,3.72Zm1.86,10.12c-.08-.76-3-2.99-4.45-4.94-1.46-1.94-2.67-3.72-2.67-2.59s1.62,2.83,3.16,4.37c1.54,1.54,4.05,3.88,3.97,3.16Zm.57,8.98c-.97,.08-1.62,2.19-2.75,4.53s-.32,2.43,.65,.49c.97-1.94,1.62-3.08,2.35-2.75,.73,.32-.73,2.43-2.51,6.23-1.78,3.8-1.05,9.15-1.29,12.54-.24,3.4-1.38,5.58-.08,3.56,1.3-2.02,1.05-7.04,1.21-10.6,.16-3.56,2.59-7.73,3.48-9.55,1.62-3.32-.08-4.53-1.05-4.45Zm3.08,.08c.76-.32-.65-.57-1.05-2.19-.4-1.62-1.38-2.99-3.16-4.21-1.78-1.21-3.08-2.59-4.05-3.97-.97-1.37-1.78-.65,.16,1.78,1.94,2.43,4.13,3.8,4.85,4.69,.73,.89,2.27,4.29,3.24,3.88Z"/>
  <path class="cls-3" d="M202.48,444.13c-.81,.08-1.54-5.58-1.46-8.26,.08-2.67,.24-6.07,.16-7.77-.08-1.7,0-2.83,.65-6.8,.65-3.97,1.38-7.12,2.18-11.33,.81-4.21,.81-9.55,1.94-13.27,1.13-3.72,1.29-8.98,2.83-12.95,1.54-3.97,3.88-7.69,5.67-9.63,1.78-1.94,2.43-2.35,4.21-2.83,1.78-.49,3.97-.89,2.1,.49-1.86,1.38-4.53,4.13-5.1,7.53-.57,3.4-.97,7.53-.89,12.46,.08,4.94,.08,9.55-.41,11.49-.48,1.94-1.46,6.31-1.78,8.17-.33,1.86-.33,5.18-.97,7.28-.65,2.1-.97,4.05-2.1,5.91-1.13,1.86-1.62,3.24-2.02,5.42-.4,2.19-.16,4.21-.73,6.39-.57,2.19-1.78,3.16-1.62,5.1,.16,1.94,.41,2.67,.73,.81,.32-1.86,.57-2.51,1.94-2.1,1.38,.41,.49,2.59,1.78,2.43s-.65-1.21,.32-1.13c.97,.08,3.16,1.46,4.05,2.51,.89,1.05,.32,1.78-1.37,1.21-1.7-.57-2.35-1.38-3.97,.08-1.62,1.46-2.1,1.28-2.75,.4-.97-1.29-1.74-1.78-3.4-1.62Z"/>
  <path class="cls-3" d="M235.56,427.51c-.85-.75-1.93-1.71-3.22-2.89-2.86-2.61-4.62-6.67-5.25-8.28l.06-.03c1.21-.48,2.37-1.18,3.4-2.21,3.72-3.72,4.7-5.58,5.83-5.58s1.7,3.32,.81,5.34c-.89,2.02-1.21,3.96-.65,6.15,.57,2.19,.03,3.05-.57,5.42-.2,.79-.3,1.61-.36,2.12l-.06-.04Z"/>
  <path class="cls-3" d="M233.63,437.58c-2.52,1.08-4.95,2.9-6.71,4.2-1.86,1.38-4.69,2.1-7.2,2.43-2.51,.33-4.05,.33-4.05,.33,0,0-.65-1.62-2.59-3-1.94-1.38-3.64-2.27-4.37-2.75-.73-.48-1.21-2.67,.73-3.72,1.94-1.05,9.63-5.42,11.82-7.2,1.79-1.46,3.75-3.19,4.44-2.96l.06,.04c-.03,1-.02,2.01,.03,3,.32,5.75,2.75,7.61,2.75,7.61,1.38-.97,2.35-1.21,2.35-1.21,.98,1.29,1.92,2.32,2.86,3.2l-.11,.04Z"/>
  <path class="cls-3" d="M225.81,423.71c-.39-.22-1.35-.38-3.25,1.24-2.67,2.27-4.13,3.72-7.93,5.66-2.47,1.26-4.23,2.25-5.16,2.79-.5,.29-.84,.09-.89-.51-.08-1-.03-2.66,.78-4.38,1.29-2.75,3.24-6.39,3.72-8.66,.19-.87,.29-1.54,.35-2.03,.09-.79,.44-1.02,1.11-.9,.87,.16,2.24,.34,3.88,.34,1.98,0,5.14,.26,8.14-.73l.11-.04c-.24,1.34-.69,4.1-.87,7.15v.06Z"/>
  <path class="cls-2" d="M237.69,365.54c-1.94,0-2.51,.24-4.53,2.02-2.02,1.78-2.91,3.08-3.8,3.64-.89,.57-1.3,1.29-1.38,2.99-.08,1.7,.57,3.64,1.38,4.05,.81,.4,.57-.65,2.1-1.62,1.54-.97,2.75-1.54,4.45-1.86,1.7-.32,2.67-.4,3.8-.4s2.1-.32,2.27-1.05c.16-.73-1.21-.4-2.35-.32-1.13,.08-1.78,0-.08-.32,1.7-.32,2.35-.49,2.83-1.29,.49-.81,.47-1.99-.73-1.01-1.09,.89-1.62,.93-2.43,.93s1.46-.97,2.27-1.37c.81-.41,1.54-.61,1.13-1.26-.41-.65-1.21,.12-2.1,.2-.89,.08-.24-.4,1.13-.81,1.38-.4,2.57-.55,2.02-1.46-.36-.61-1.7,.08-3.16,.4-1.46,.32-2.59,.49-2.99,.57-.4,.08,.16-.49,1.86-.73,1.7-.24,2.35-.57,2.75-.97,.4-.4-.16-.49-1.21-.4-1.05,.08-2.19,.08-3.24,.08Z"/>
  <path class="cls-2" d="M241.44,348.63c-1.54,1-2,2.1-2.48,3.29-.49,1.19-1.19,1.13-2.27,.43-1.08-.7-2.32-2.21-2.59-3.4-.27-1.19,.21-2.48,1.46-3.99,1.24-1.51,1.35-2.16,1.94-4.21,.59-2.05,1.19-2.91,2.97-3.83,1.78-.92,3.4-1.51,4.91-1.67,1.51-.16,3.34,.38,2.86,.86-.38,.38-1.13,.75-2.43,1.08-1.29,.32-2.48,.38-3.56,1.29-1.08,.92-1.94,2.21-.97,1.46,.97-.76,1.78-1.46,2.8-1.56,1.02-.11,1.19,.92-.11,2.27-1.3,1.35-1.73,1.67-2.64,2.1-.92,.43-1.24,.97,.27,.38,1.51-.59,2.37-1.24,3.29-2.64,.92-1.4,.92-2,1.78-2.43,.86-.43,2.11-.59,2.91-.48,.81,.11,1.51,.7,1.08,1.19-.43,.49-1.19,.43-2.1,.49-.92,.05-1.89,.16-2.54,.7-.65,.54,2-.38,3.45-.43,1.46-.05,1.46,.65,1.08,1.08-.38,.43-.54,.38-2.21,.54-1.67,.16-3.29,.97-1.3,.75,2-.22,3.56-.65,2.48,.27-1.08,.92-2.1,1.13-2.7,1.24-.59,.11-1.35,.92-2.32,2.21-.97,1.29-2,2.32-3.07,3.02Z"/>
  <path class="cls-3" d="M214.61,344.4c-.12-.08-.49-.08-.77,.15-.46,.38-1.36,.92-2.84,1.05-2.37,.22-2,1.35-.81,2.27,1.19,.92,2.7,2.32,3.08,4.86,.38,2.54,.65,5.07,0,5.13-.65,.05-.32-2.86-.65-4.64-.32-1.78-1.19-3.4-2.81-4.86-1.62-1.46-2.1-2.16-3.24-2.64-1.13-.49-1.78,.22,.49,3.24,2.27,3.02,4.37,5.83,4.05,8.47-.32,2.64-.92,3.72-.32,4.53,.59,.81,1.67,2.48,2.54,2.48s1.73,1.3,1.67,1.94c-.05,.65,.05,1.19,.59,1.29,.54,.11,.54-.05,1.4-2.27,.86-2.21,1.19-3.35,.59-4.53-.59-1.19-.21-1.24,.22-1.08,.43,.16,.59-.38,.59-3.18s.05-4.26-.81-5.02c-.86-.76-1.89-2.37-.81-1.67,1.08,.7,.97,.22,.43-2-.49-2.03-1.26-2.61-2.6-3.52Z"/>
  <path class="cls-3" d="M221.11,384.35c-.39,.08-1.07,.18-2.04,.13-.71-.04-1.27-.18-1.66-.33-.51-.19-.8-.92-.77-1.7,.04-.84,.15-1.98,.49-3.07,.65-2.11,1.86-4.53,4.05-6.07,2.19-1.54,4.21-1.7,5.26-1.7s.57,2.11,.65,3.88c.08,1.78,.33,2.53,1.38,3.48,.13,.12,.26,.22,.4,.3l.08,.05c-1.88,.36-3.68,.69-4.77,.86-3.07,.49-3.48,.89-3.16,3.48,.03,.26,.09,.48,.17,.67h-.07Z"/>
  <path class="cls-3" d="M238.58,398.52c-.61-.53-2.04-1.71-3.97-3.04-2.59-1.78-4.94-4.86-8.58-5.99-3.64-1.13-5.26-1.05-7.2-1.86-1.94-.81-2.35-2.43-.24-2.02,1.99,.38,4.2,.48,5.6-.2l.04-.02c1.19-.05,2.67-.23,4.4-.26,.56-.01,1.11-.03,1.64-.04,0,0,0,1.17,.68,1.98,.67,.81,2.6,1.32,4.18,2.21,1.86,1.05,2.62,1.37,2.64,1.57,.22,2.15,.5,4.74,.79,7.57l.02,.1Z"/>
  <path class="cls-3" d="M240.15,413.72c-.52,2.15-1.48,4.65-1.98,5.9-.2,.5-.52,.31-.64-.59-.17-1.27-.18-3.36,.72-6.06,1.08-3.24-.08-5.18-1.38-6.15-1.29-.97-1.86,.4-3.96,2.75-2.11,2.35-4.13,4.78-6.56,5.75-2.43,.97-6.23,.73-8.82,.65-2.59-.08-3.88-.97-3.97-1.45-.08-.49,.49-.97,1.94-.97s2.75-.08,4.53,.56c1.78,.65,2.43,.57,1.46-.16-.97-.73-2.75-1.13-4.69-1.13s-2.91-.97-2.51-3.24c.41-2.27,1.13-2.02,2.27-2.02s2.51-.24,3.97-1.38c1.46-1.13,1.7-1.7,.49-1.13-1.21,.57-1.94,1.13-3.72,1.13s-2.35-.41-2.1-2.75c.24-2.35,.81-4.94,.81-9.07s.16-6.15,.16-6.15c0,0,1.38-.41,2.83,.57,1.46,.97,4.45,1.46,5.75,1.46s3.8,1.62,5.75,3.56c1.94,1.94,3,3.32,5.18,4.45,1.5,.78,2.62,2.1,3.18,2.84v.14c.42,3.97,.87,8.26,1.29,12.38l.02,.11Z"/>
  <path class="cls-3" d="M272.59,367.55c-.25-.32-.79-1.01-1.42-1.76-.86-1.03-3.72-5.07-5.13-8.52-1.4-3.45-.11-2.91,1.4-2.91s2.84-1.21,3.83-2.32c.92-1.03,1.46-.43,2.48,1.51,1.03,1.94,1.94,3.45,2.7,4.37,.76,.92,2.16,1.4,2.32,2.48,.16,1.08-.54,3.67,.16,3.08,.7-.59,.65-1.89,.7-3.24,.05-1.35,.75-2.59,1.3-3.88,.54-1.29,1.56-2.43,2.59-2.16,1.03,.27,1.13,3.02,1.73,3.78,.59,.75,.43,1.78,.38,2.43-.06,.65,.75,.38,.81-.97,.05-1.35-.54-5.02-.27-5.66,.27-.65,2.27-2.1,3.02-3.13,.76-1.03,1.83-2.43,2.27-2.64,.43-.22,2.16,1.08,2.32,1.94,.16,.86,.22,2.59,.11,4.42-.11,1.83-.54,3.45,.22,4.64,.75,1.19,.92,2.54,.92,3.94s-.22,3.13,.32,3.45c.54,.32,.11,1.94-1.24,2.7-1.35,.76-3.51,2.64-3.56,2.91-.05,.27,.97-.43,2.64-1.51,1.67-1.08,3.02-2.21,3.18-1.19,.16,1.03,.22,2.11,.86,2.37,.65,.27,.38,1.3,.76,2.37,.38,1.08,.38,2.37,1.19,2.91,.81,.54,.59,1.35-.86,2-1.46,.65-4.21,.92-5.02,1.46-.81,.54-2.37,1.29-3.83,1.13-1.46-.16-2.1,.86-3.56,1.13-1.46,.27-2.27,.38-2.1-1.24,.16-1.62-.16-3.67,0-4.48,.16-.81,1.73-2,3.02-2.32,1.29-.32,1.73-.92,2.48-1.62,.75-.7,.65-.97-.38-.16-1.03,.81-1.89,.11-1.51-1.03,.38-1.13,.16-2.1,0-3.34-.16-1.24-.43-3.24-1.03-3.88-.59-.65,.16-2.16-.49-2.1-.65,.05-.49,2.05-1.35,2.59-.86,.54-1.78,1.73-2.97,1.67-1.19-.05-1.51,.59-1.67,1.13-.11,.38-.58,.63-.84,.74l-.04-.08c-.47-.91-1.55-1.36-3.13-1.63-1.57-.27-2.64,.06-3.26,.6l-.04,.03Z"/>
  <path class="cls-3" d="M278.5,373.19s.05,.04,.07,.06c.47,.4,.93,.82,1.33,1.28,1.29,1.51,3.24,1.19,3.24,1.19,.49,.05,.92-.86,1.62-1.24,.35-.19,.69-.46,.94-.68,.25-.22,.39-.59,.37-.99-.02-.26-.04-.6-.06-1.02-.05-1.08,.59-2.05,.11-2.7-.49-.65,.05-2.97-.76-2.97s-1.73,.38-3.18,1.51c-1.12,.87-2.37,1.93-2.88,2.38v.06c-.04,.47-.14,1.01-.33,1.64-.13,.42-.27,.91-.42,1.44l-.04,.05Z"/>
  <path class="cls-3" d="M276.18,386.73c.87,.09,2.19,.32,3.58,.87,.96,.38,1.93,.72,2.37,.46,.38-.23,.65-1.02,.8-2.36,.06-.51,.06-1.18-.24-1.51-.37-.4-1.24-.36-2.08-.33-.55,.02-1.06,.04-1.53-.04-2.53-.47-3.25-.89-3.41-1-.22-.12-.35-.26-.35-.26-2.16,0-3.27-.06-4.25-.3l-.4,.03c-.09,0-2.16,.16-5.38-.58-1.03-.24-2.2-.51-2.42-.34-.22,.17-.25,1.4-.27,1.99-.06,2.31,.57,2.41,3.58,2.49,2.79,.08,3.53,0,3.56,0,.77,0,1.96,.24,3.2,.43,1.24,.19,2.63,.38,3.24,.45Z"/>
  <path class="cls-4" d="M287.89,315.5c-.71,.7-.97,1.73-1.13,2.75-.16,1.02-.27,2.1,.32,2,.59-.11,1.57-.32,1.78-.86,.22-.54,.97-.22,1.84-.43,.86-.22,1.46-.05,2.1-.22,.65-.16,.43,1.02,1.3,1.02s.59,.76,1.13,1.29,.97,1.67,.76,2.05c-.22,.38,.38,1.08,1.03,1.24,.65,.16,.48,1.08,1.29,1.03,.81-.05,1.35,.76,1.24,1.94-.11,1.19,0,2.7,.86,2.7s0,1.94,1.08,1.83c1.08-.11,1.78,1.19,2.32,.49,.54-.7,1.29,.32,1.67-.27,.38-.59,.06-2.11,.92-1.46,.86,.65,1.83,1.29,2.59,.65,.76-.65,1.03-2.32-.16-2.37-1.19-.05-1.08-.76-.05-.81,1.03-.05,1.19-1.46-.11-1.62-1.29-.16-2.48,.22-3.13,.32-.65,.11-.86-.92-.86-1.56s.11,.43,.86,.7c.75,.27,.59-.05,1.4-.11,.81-.05,.27-1.29-.75-1.83-1.03-.54-1.62-2.27-2.32-3.78-.7-1.51-.05-3.67-1.19-5.02-1.13-1.35-3.83-2.59-6.21-2.64-2.37-.05-5.77,.22-8.58,2.97Z"/>
  <path class="cls-2" d="M287.73,320.57c.7-.23,1.62-.43,2.21-.65,.59-.21,1.62-.54,2.43-.16,.81,.38,1.62,1.08,2.1,1.57,.49,.49,.7,1.24,.75,2.05,.05,.81,.16,1.19,1.08,1.73,.92,.54,1.62,.76,1.83,1.56,.21,.81,.54,1.62,.49,2.75-.05,1.13-.32,2.32-2.43,3.72-2.1,1.4-4.32,1.67-5.29,1.67s-1.56-.54-1.29-1.46c.27-.92,.97-1.62,.38-2.05-.59-.43-.21-.97-.59-1.35-.38-.38-1.46-.16-1.62-.7-.16-.54-.05-1.73,.22-2.59s1.4-1.13,2.1-1.13,2.21,0,1.89-.27c-.32-.27-.7-.65-.92-.86-.22-.21,.22-.81,.97-.81s1.24,.27,1.4,0c.16-.27-.92-.54-1.46-.59-.54-.05-1.73,.16-2.7,.92-.97,.76-1.35,.92-1.67,.32-.33-.59-.7-3.4,.11-3.67Z"/>
  <path class="cls-2" d="M299.22,332.28c-.59,.59-2.49,2.31-3.18,2.86-1.02,.81-1.08,1.97-1.35,2.64-.75,1.94-1.73,2.59-1.73,3.67s.7,2.48,1.67,2.7c.97,.21,4.32,.75,5.83,.05,1.51-.7,3.16-1.21,3.88-1.89,1.94-1.84,2.86-2.92,2.21-3.89-.65-.97-1.56-1.56-1.67-2.54-.11-.97-.54-.97-1.29-1.67-.76-.7-2.27-1.35-2.27-.32s-.38,2.21-1.08,2.86c-.7,.65,.11-.54,.11-2.16s-.27-3.18-1.13-2.32Z"/>
  <path class="cls-2" d="M269.49,334.06c-.66,0-.74,1.25-1.24,2.54-.75,1.94-1.46,3.13-1.94,3.51-.49,.38-.49-.43-.49-.92s-.54-1.46-1.62-2.86c-1.08-1.4-3.08-3.62-3.51-4.05-.43-.43-1.4-.21-1.03,.7,.38,.92,1.94,3.24,2.54,3.99,.59,.75,.43,.92-.81-.49-1.24-1.4-2.64-2.75-3.29-3.4-.65-.65-1.62-1.02-1.56-.05,.05,.97,.75,2.1,2.16,3.62,1.4,1.51,2.91,3.13,2.86,3.45-.05,.32-1.73-1.67-2.97-2.97s-3.18-2.91-3.45-2.21c-.27,.7,0,1.19,1.35,2.59,1.35,1.4,3.08,3.13,2.92,3.4-.16,.27-1.84-1.24-2.7-2.05-.86-.81-1.29-1.19-1.73-1.02-.43,.16-.54,1.08,.86,2.59,1.4,1.51,3.72,3.94,5.18,5.23,1.46,1.3,3.34,3.13,3.45,4.91,.11,1.78,.76,2.43,1.78,2.7,1.02,.27,3.08-.59,4.26-1.94,1.19-1.35,1.29-2.27,.49-3.4-.81-1.13-1.94-1.35-2.91-1.24-.97,.11-1.4-.21,.05-.59,1.46-.38,2-1.51,1.94-3.62-.05-2.1-.32-3.78-.22-5.72,.11-1.94,.16-2.7-.38-2.7Z"/>
  <path class="cls-3" d="M291.23,340.37c-1.21,.88-.65,2-1.24,2.1-.59,.11-.65,1.57-1.4,1.57s-.49,1.29-1.4,1.35c-.92,.05-1.3,1.67-1.83,1.84-.54,.16-1.35,2.43-2.16,3.07-.81,.65-1.73,2.81-.92,2.7,.81-.11,1.51,.22,2.54-.32,1.03-.54,2.32-2.48,3.08-2.91,.76-.43,.22-1.51,1.24-2,1.02-.49,1.67-1.62,2.32-1.89,.65-.27,1.24-.59,.7-2.43-.54-1.83-.32-3.51-.92-3.08Z"/>
  <path class="cls-3" d="M294.2,345.28c-.76-.09-1.4,.49-1.24,1.24,.16,.76,1.13,.54,1.78,.49,.65-.05,.75-.65,.7-1.08-.05-.43-.81-.59-1.24-.65Z"/>
  <path class="cls-2" d="M274.31,372.06c-.97-.07-1.9,0-2.43,.53-.53,.53-.89,.73-1.21,1.01-.32,.28-.65,.77-.69,1.33s-.45,.77-.73,1.09c-.28,.32-.49,.89-.28,1.54,.2,.65,.57,1.13,.28,1.13s-.85,.69-.36,1.25c.49,.57,1.58,1.29,2.31,1.29s1.7-.28,2.39-.12c.69,.16,2.02,.49,2.83,.49s2.91,.65,3.68,.57c.77-.08,2.35,0,2.71-.53,.36-.53-.16-1.82-.16-3.04s.36-1.86-.57-1.94c-.93-.08-1.82-.49-3.12-1.82-1.29-1.33-3.56-2.71-4.65-2.79Z"/>
  <path class="cls-2" d="M275.97,438.33c-.88-.63-1.22-.12-2.13,1.35-.7,1.13-1.38,2.13-2.4,3.08-1.03,.94-2,1.3-3.21,1.54-1.21,.25-1.97,.95-1.4,1.54,.57,.59,1.27,.76,2.02,.7,.76-.06,2.21,.3,3.02,.24,.81-.05,2.99-.59,3.64-.92,.65-.32,1.48-.3,1.83,.21,.35,.51,1.56,.4,2.46,.4s1.7-.7,1.86-1.24c.16-.54-1.08-1.43-.86-2.21,.22-.78,.35-2.16-.81-3.05-1.16-.89-2.7-.7-4.02-1.65Z"/>
  <path class="cls-2" d="M307.03,443.01c-.86,1.08-1.96,2.19-3.66,2.52-1.9,.36-2.41,.16-2.44,.65-.03,.5,.65,1.24,2.21,1.3,1.56,.06,4.44-.03,5.5-.14,1.06-.11,2.85-.22,4.38-.22s2.8,.11,3.24-.63c.44-.75-.18-1.46-.18-2.57s0-2.29-1.3-2.18c-1.29,.11-3,.28-4.85,.36-1.85,.08-2.38,.25-2.91,.91Z"/>
  <path class="cls-3" d="M272.32,403.65c.56-3.23,1.08-6.2,1.51-8.7l.05-.05c.59-.41,1.9-1.34,3.7-2.79,1.77-1.42,3.17-2.68,3.84-3.28l.07-.04c.59,.06,1.04-.09,1.38-.58h.06c.43-.03,1.25-.03,1.71,.23,.65,.38,1.62,1.4,2.48,2.43,.86,1.02,2.1,2.1,3.67,2.32,1.56,.21,2.43,1.73,3.4,1.94,.97,.22,.81-.27,.43-.38-.38-.11-1.02-.27-1.73-1.19-.7-.92-2.21-1.46-3.07-1.89-.86-.43-1.62-1.13-1.94-1.89-.32-.75-2.05-2-2.86-2.81s-.27-1.56,.32-2.37c.59-.81,1.78-1.4,3.24-1.73,1.46-.33,2.27,.38,3.24,.92,.97,.54,3.45,.27,4.69-.43,1.24-.7,1.03-.97,.32-.97s-1.46,.54-2.81,.7c-1.35,.16-2-.16-2.05-.75-.05-.59,1.29-.81,2.37-.81s1.94-.86,2.48-.92c.54-.05,1.56-.27,2.27-.75,.7-.49,1.24-.49,1.62,0,.38,.49,1.19,1.13,.7,1.51-.49,.38-1.4,.38-1.51-.11-.11-.48-.7-.48-.97,.22-.27,.7,.38,1.46,1.62,.92,1.24-.54,1.94-.7,2.75,.11,.81,.81,2.1,.54,2.1,1.46s-1.57,.7-2.7,.11c-1.13-.59-2.21,.05-3.61,.05s-3.29,.33-1.67,.49c1.62,.16,2.86,.65,4.75,.59,1.89-.05,2.43,1.13,4.15,1.13s1.4,1.13,.86,1.19c-.54,.05-2.1,.22-3.29,.32-1.19,.11-2.32-1.51-3.24-1.51s-2.97-.27-4.1,.38c-1.13,.65-3.56-.05-4.7-.16-1.13-.11-.91-1.13-3.99-1.03-3.08,.11-1.08,.81,.27,.81s1.89,.22,2.43,.81c.54,.59,1.83,.49,2.54,.86,.7,.38,1.35,1.62,2.75,.7s3.78-.81,5.4-.7c1.62,.11,1.35,.86,.22,.97-1.13,.11-2.54,.86-3.89,1.4-1.35,.54-2.86,.21-4.64-.11-1.78-.32-1.46,.54-.49,.97,.97,.43,2.43,.05,4.16,.11,1.73,.05,2.32,.27,3.13-.38,.81-.65,1.57-1.35,3.13-1.24,1.56,.11,3.18-.27,4.26-.81,1.08-.54,1.4,1.29,2.37,1.19,.97-.11,2.43,.27,2.54,1.89,.11,1.62,1.83,2.48,2.59,3.29,.76,.81,1.29-.16,.38-.81-.92-.65-.86-1.51-.92-2.37-.05-.86-1.35-3.18-2.75-3.34-1.4-.16-1.67-1.67-2.38-2.64-.7-.97-1.4-1.57-1.78-2.81-.38-1.24-.65-2.43-.65-4.04s-.81-1.83-1.35-2.54c-.54-.7-.59-1.67-.65-2.75-.05-1.08-.11-1.57-.81-2.21-.7-.65-1.08-1.56-1.03-2.64,.05-1.08-.11-1.73-.92-2.48-.81-.76-.49-2.16-.97-2.7-.49-.54-.97-1.73-.86-2.54,.11-.81-.38-1.46-.81-1.29-1.19,.45-.97,2.43,.11,3.4,1.08,.97,0,2.32,.81,2.81,.81,.48,.75,1.35,.97,2.7,.22,1.35,.65,2.91,1.08,3.18,.43,.27-.11,1.35,.59,1.57,.7,.22,.97,1.08,.92,2.43-.05,1.35,.27,1.19,.86,2.54,.59,1.35,.7,3.83,0,3.5-.7-.32-.75-1.51-1.51-2.32-.75-.81-1.19-2.43-1.89-3.02-.7-.59-.92-1.35-1.51-2.27-.59-.92-.7-2.91-1.67-4.21s-.49-2.59-1.03-3.4c-.54-.81-.86-2.21-.81-4.05,.05-1.83-.05-2.54-.75-3.94-.7-1.4-.81-2.81-.43-4.59,.38-1.78-.05-2.27,0-3.13,.06-.97-.92-2.43-.38-2.81,.54-.38,1.46,.38,2.21,1.03,.75,.65,2.59,.76,3.72,.76s1.24-.81,.16-.54c-1.08,.27-2-.22-2.37-.75-.38-.54,1.51-1.08,2.64-1.13,1.13-.05,1.62-.38,.65-.49-.97-.11-2.8,.11-3.67,.65-.86,.54-1.4-.33-1.51-1.19-.11-.86,1.3-1.16,2.59-1.35,2.54-.38,4.86-.97,5.93-1.94,1.08-.97,2.05-2.43,2.59-3.02,.54-.59,1.02-.32,2.7,1.19,1.67,1.51,4.64,4.69,5.56,5.61,.92,.92,.86,2.59,1.62,3.78,.76,1.19,.97,4.05,1.03,5.12,.05,1.08-.32,2.48,.11,3.99,.43,1.51,1.29,3.29,1.24,5.24-.05,1.94,.16,3.99,.65,5.12,.49,1.13,.32,4.53,.75,6.64,.43,2.1-.59,3.35-.16,5.34,.43,2,.65,4.32,.49,5.45-.16,1.13-.86,.38-1.46-.7-.59-1.08-2.05-2.43-2.75-3.4-.7-.97-.92-1.51-1.19-2.65-.27-1.13-1.46-.97-2.05-2.32-.59-1.35-.81-1.73-1.67-2.59-.86-.86-2.91-3.61-3.13-5.88-.22-2.27-.7-3.29-1.4-4.59-.7-1.29-1.03-1.67-1.19-3.99-.16-2.32-.7-2-1.03-3.56-.32-1.57-.86-2.8-.86-4.05s-.92-2.05-.92,0-.38,3.4,.48,4.48c.86,1.08-.11,3.24,.86,4.26,.97,1.03,.43,2.64,1.29,4.1,.86,1.46,.97,3.51,1.78,4.1,.81,.59,.16,1.94,1.13,3.13,.97,1.19,1.78,3.18,2.86,3.94,1.08,.75,.81,2.32,1.83,3.08,1.03,.75,.54,2.54,1.56,3.34,1.03,.81,1.19,2.27,2.1,3.02,.92,.76,1.89,2.32,2.59,2.7,.7,.38,1.13,1.83,.97,3.29-.16,1.46,.59,2.37,.59,4.05s.05,5.34-.11,6.91c-.16,1.56-.11,3.02-.05,4.1,.05,1.08-.11,6.37,.11,7.61,.22,1.24,.32,4.32-.11,5.23-.43,.92-.22,2.43-.05,3.56,.16,1.13,.38,6.58,.11,8.09-.27,1.51-.49,2.37-1.08,2.64-.59,.27-1.3-.27-1.13-1.62,.16-1.35,.27-3.61,.16-5.18-.11-1.57-.54-2.16-.54-.11s-.59,5.18-.49,6.31c.11,1.13,1.03,2.37,.05,3.51-.97,1.13-1.51,1.4-2.64,1.35-1.13-.05-2.54,0-4.32,.22-1.78,.22-3.94,.38-5.07-.05-1.13-.43-3.51-.92-4.32-1.78-.81-.86-2.91-1.94-3.24-2.75-.32-.81,.48-.7,1.24-1.13,.76-.43,.97-2.59,.92-4.26-.05-1.67,.75-5.99-.11-7.28-.86-1.3-2.05-3.07-1.67-4.26,.38-1.19,1.56-3.4,1.19-4.8-.38-1.4-1.29-4.91-.81-6.1,.49-1.19,1.62-1.56,1.73-3.02,.11-1.46,.97-2,1.62-2.97,.65-.97,2-3.18,.65-2-1.35,1.19-2.21,2-2.91,2.75-.7,.75-1.29,2.1-1.46,3.18-.16,1.08-1.19,.86-.92,3.24,.27,2.37,.76,4.64-.16,5.94-.92,1.29-.48,2.75-1.29,4.05-.81,1.3-2.37,2.81-2.37,4.69s.54-1.24,1.4-2.1c.86-.86,1.67-1.35,2.37-.16,.7,1.19,.76,1.78,1.46,3.02,.7,1.24-.16,3.18-.22,5.02-.05,1.83,.16,3.61-.54,4.15-.7,.54-1.24,1.73-2.16,2.81-.92,1.08-1.57,.43-2.21,.11-.65-.33-1.62,0-2.1,.81-.49,.81-.65-1.03,0-2.43,.65-1.4,1.3-2.97,1.3-4.05s.59-1.62,.97-2.97c.38-1.35,.11-2.86-.43-1.08-.54,1.78-1.46,3.4-1.89,4.64-.43,1.24-1.08,2.32-1.29,3.83-.22,1.51-1.03,3.18-1.94,3.67-.92,.49-1.78,.38-3.29,.7-1.51,.32-2.97,.54-1.24-1.62,1.73-2.16,2.32-4.21,2.8-5.4,.49-1.19,1.73-1.83,2.21-3.51,.49-1.67,.49-2.91,1.62-5.02,1.13-2.1,1.35-4.32,2.48-5.93,1.13-1.62,1.73-2.59,1.73-3.62s0-.65-.65,.7c-.65,1.35-2.32,2.48-2.7,4.15-.38,1.67-1.67,2.54-2.05,4.26-.38,1.73-1.35,3.56-1.73,4.8-.38,1.24-1.51,1.94-2.37,3.78-.86,1.83-1.99,2.7-2.26,3.88-.27,1.19-1.24,3.35-2.37,2.81-1.13-.54-1.46-1.35-2.86-1.57-1.4-.21-3.51-1.51-2.21-1.4,1.29,.11,2.48-.76,1.19-.81-1.29-.05-2.43,0-2.37-2.48,.05-2.48-1.08-4.32-1.4-6.85-.32-2.54-.81-5.4-1.08-8.85-.25-3.21-.97-8.16-.68-13,0-.1,.01-.2,.02-.3l.03-.19Zm39.09-47.96c-.42,1.21-.54,2.64,.11,3.45,.65,.81,.97,1.35,.86,2.64-.11,1.29-.27,3.62,.54,2.59,.81-1.03,1.19-2.86,.7-3.88-.49-1.02-1.46-2.16-1.46-3.34s-.27-2.86-.76-1.46Zm3,48.86c-.8-.11-.89,.4,.08,.89,.97,.49,.97,1.62,1.3,2.18,.32,.57,.24,1.46,.4,3,.16,1.54-.24,3.56-.08,5.42,.16,1.86,.81,2.67,.73,3.97-.08,1.29-.81,2.27-.65,5.1,.16,2.83-.4,3.88-1.05,5.18-.65,1.3-.4,2.91-.4,4.13s.24,2.67-.4,3.16c-.65,.49-.24,1.21,.73,.73,.97-.49,1.13-1.46,1.13-3.16s-.24-3.48,.32-5.18,.73-3.8,.65-5.5c-.08-1.7,.4-3.32,.4-5.02s.16-3.24-.08-6.8c-.24-3.56-.73-7.77-3.07-8.09Zm.97-4.69c-1.32-.18-2.67,.89-1.13,1.7,1.54,.81,2.83,2.27,3.4,3.16,.57,.89,.97,3.48,1.21,6.96,.24,3.48-.16,8.34,.32,9.71,.49,1.37,.65,1.46,.65-.41s.33-5.34,.33-8.25-.81-7.12-.81-8.25,.81-1.86,1.21-3.48c.41-1.62,.73-4.05,.16-4.94-.57-.89-1.05-.89-.81,.97,.24,1.86-.16,3.4-.97,2.75-.81-.65-1.21-3.48-1.86-3.48s-1.62,.32-.73,1.37c.89,1.05,1.7,3,2.19,3.64,.49,.65-.16,2.51-.65,1.21-.49-1.29-1.29-2.51-2.51-2.67Zm-31.56,1.37c-1.2-.2-1.62,.73-.41,1.29,1.21,.57,3.32,1.29,4.53,2.51,1.21,1.21,2.43,3.24,3.89,3.72,1.46,.49,.97,2.27,1.94,2.02,.97-.24,2.18-2.59,3.08-4.13,.89-1.54,1.86-3.8,2.43-5.34,.57-1.54,1.78-2.67,2.99-3.72,1.21-1.05,2.43-2.27,1.13-1.94-1.29,.33-2.43,.57-3.24,1.46-.81,.89-1.21,1.7-2.43,4.61-1.21,2.91-2.83,5.34-3.56,5.99-.73,.65-2.19-.89-3.16-1.94-.97-1.05-2.18-2.27-3.64-3.08-1.46-.81-2.1-1.21-3.56-1.46Zm4.21-2.51c-1.53-.18-1.13,.89,.57,1.05,1.7,.16,2.27,1.29,4.05,1.29s3.08-.57,4.05-1.62c.97-1.05,2.75-3.16,1.86-3.08-.89,.08-1.13,1.46-2.51,2.51-1.37,1.05-2.51,.97-3.88,.49-1.38-.49-2.75-.49-4.13-.65Zm12.46-4.94c-.73,.16-2.18-.57-3.48-.73-1.29-.16-1.05,.08-.24,.81,.81,.73,1.86,1.06,3,1.13,1.21,.08,1.46-1.38,.73-1.22Zm-16.27,12.46c-1.05-.07-1.62,2.02-.89,3.16,.73,1.13,1.13,3.64,1.13,5.42s-.32,4.86-.32,6.64-.32,5.02,.4,4.45c.73-.57,1.46-3.56,1.38-4.94-.08-1.38-.89-5.66-.81-9.07,.08-3.4,.32-5.58-.89-5.66Z"/>
  <path class="cls-6" d="M256.89,236.81l8.52,17.43c.22,.47,.12,.72-.46,.72l-7.11-12.79c-.15-.27-.16-.26-.03,.02l5.84,12.28c.13,.27-.01,.5-.31,.5h-1.7c-.3,0-.64-.23-.75-.52l-5.38-14.24c-.11-.28-.13-.28-.05,.02l3.97,14.21c.08,.29-.1,.53-.4,.53h-1.76c-.3,0-.6-.24-.65-.54l-2.54-13.32c-.06-.3-.08-.29-.05,0l1.3,13.31c.03,.3-.19,.55-.5,.55h-2.25c-.3,0-.54-.25-.54-.55l.4-14.38c0-.3-.02-.3-.05,0l-1.75,14.39c-.04,.3-.31,.55-.62,.55h-1.54c-.3,0-.5-.24-.43-.54l2.95-13.49c.06-.29,.04-.3-.04-.01l-4.1,13.51c-.09,.29-.41,.53-.71,.53h-1.22c-.3,0-.46-.23-.35-.51l4.45-11.28c.11-.28,.09-.29-.04-.02l-5.75,11.81c-.81,0-.58-.38-.37-.78l8.49-17.37h.04c.82,.45,1.75,.7,2.74,.7s1.91-.24,2.72-.68l.06-.02Z"/>
  <path class="cls-4" d="M249.26,231.68c0-2.68,2.18-4.86,4.86-4.86s4.86,2.18,4.86,4.86-2.18,4.86-4.86,4.86-4.86-2.18-4.86-4.86Z"/>
  <path class="cls-6" d="M260.87,268.61v-4.72c0-.4,.33-.73,.74-.73h1.43c.4,0,.73,.33,.73,.73v5.37s-.05-.02-.05-.02c-.93-.24-1.86-.45-2.81-.62h-.04Z"/>
  <path class="cls-6" d="M247.81,268.54v-4.65c0-.4,.33-.73,.73-.73h11.14c.4,0,.73,.33,.73,.73v4.64h-.05c-2.04-.34-4.13-.52-6.25-.52s-4.22,.18-6.26,.52h-.04Z"/>
  <path class="cls-6" d="M244.46,269.25v-5.37c0-.4,.33-.73,.73-.73h1.43c.4,0,.73,.33,.73,.73v4.73s-.04,0-.04,0c-.95,.17-1.88,.38-2.81,.62l-.05,.02Z"/>
  <path class="cls-6" d="M176.78,380.39c0,.5,.41,.92,.92,.92h.43c.51,0,.92-.41,.92-.92v-30.57c-.02-26.72,12.74-44.92,33.3-47.49,2.3-.29,4.74-.43,7.26-.42,2.06-17.52,16.81-30.67,34.5-30.67s32.44,13.16,34.5,30.67c2.52,0,4.96,.13,7.26,.42,20.57,2.57,33.33,20.76,33.3,47.48v30.57c0,.5,.41,.92,.92,.92h.43c.5,0,.92-.41,.92-.92v-30.65c0-12.16-2.7-23.06-7.8-31.54-6.25-10.38-15.76-16.65-27.49-18.12-1.58-.2-3.18-.32-5.19-.38h-.39s-.07-.4-.07-.4c-3.23-17.57-18.54-30.33-36.39-30.33s-33.16,12.75-36.39,30.33l-.07,.38h-.39c-2.01,.08-3.61,.2-5.19,.4-11.73,1.47-21.24,7.73-27.49,18.12-5.1,8.47-7.8,19.38-7.8,31.55v30.64Z"/>
  <path class="cls-6" d="M180.02,380.39c0,.5,.41,.92,.92,.92h3.18c.5,0,.92-.41,.92-.92v-30.57c-.02-18.38,7.34-38.95,28.06-41.54,5.45-.68,10.23-.3,12.37-.05-.06-.74-.13-1.48-.13-2.22,0-15.87,12.91-28.78,28.78-28.78s28.78,12.91,28.78,28.78c0,.74-.08,1.48-.13,2.22,2.14-.25,6.92-.63,12.37,.05,20.71,2.59,28.08,23.16,28.06,41.54v30.57c0,.5,.41,.92,.92,.92h3.18c.51,0,.92-.41,.92-.92v-30.57c.02-26.19-12.41-44.01-32.45-46.52-2.39-.3-4.92-.44-7.55-.41h-.44s-.05-.43-.05-.43c-1.81-17.24-16.26-30.24-33.6-30.24s-31.79,13-33.6,30.24l-.05,.44h-.44c-2.62-.03-5.16,.11-7.55,.4-20.04,2.51-32.48,20.33-32.45,46.52v30.57Z"/>
  <path class="cls-6" d="M255.07,255.93h7.97c.41,0,.74,.33,.74,.74v5.29c0,.4-.33,.73-.73,.73h-7.97c-.41,0-.73-.33-.73-.73v-5.29c0-.41,.33-.73,.73-.73Z"/>
  <path class="cls-6" d="M245.19,255.93h7.97c.41,0,.73,.33,.73,.73v5.29c0,.41-.33,.73-.73,.73h-7.97c-.4,0-.73-.33-.73-.73v-5.29c0-.4,.33-.73,.73-.73Z"/>
</svg>